<svg baseprofile="tiny" fill="#2BAC73" height="481" stroke="#ffffff" stroke-linecap="round" stroke-linejoin="round" stroke-width=".5" version="1.2" viewbox="0 0 1000 481" width="1000" xmlns="http://www.w3.org/2000/svg">
  <defs>
    <g id="map-pin">
      <path
        d="M0,-11
          C-5.3,-11 -9,-7.4 -9,-2.9
          C-9,1.3 -6.7,4.9 -3.9,8.5
          C-2.4,10.4 -1.4,12.1 -0.3,15.5
          C0.6,12.4 1.9,10.7 3.7,8.4
          C6.8,4.5 9,1.1 9,-2.9
          C9,-7.4 5.3,-11 0,-11 Z"
        fill="#EF6F76"/>
      <circle cx="0" cy="-3.2" r="2.5" fill="#fff"/>
    </g>
  </defs>
  <g id="features">
    <path d="M860.6 274.6l-2.4-2.8-5.8-9.4-0.4-0.5-0.4-0.4-0.6-0.2-12 0.6-5.3 1.1-13 0.5-2.5 0.7-4.8 2.4-3.4-6.3-1.7-2.5-0.8-0.9-0.9-0.8-0.8-0.6-0.9-0.5-3.1-1.3-0.5-0.3-0.5-0.4-0.3-0.6-0.3-0.8-0.1-1.1 0.1-3.3 0.9-7.6-0.2-1.1-0.4-0.5-0.6-0.5-5-2.7-12.9-10.4-17.1-3.8-5.5-2.6-1.5-0.3-0.8 0-0.8 0.1-1 0.3-4.8 2.6 0.3-5-0.3-3.8-1.2-5.3-1.2-2.5-0.3-0.6-1.5-2.9-0.7-7.2 0.4-2.9 0.7-1.8 0-2.5-0.3-2.4-0.5-1.7-1.7-4.3-5.5-10.3-1.1-2.6-0.5-1.5 0.3-1 0.7-2.1 0-0.8-0.1-1.2-1.1-3.2-0.9-5.8-0.1-2 0.1-0.2 0.1-0.2 0.5-0.4 0.2-0.4 0.1-0.3 0-0.2-0.1-0.3-2.1-3 0-0.1 8.6-3.9 1.2-0.2 3.1 0.3 2.5 1.3 0.8 0.2 0.9 0 1.2-0.4 2.6-1.3 1.7-1.5 0.6-0.5 0.6-0.3 0.6-0.1 1.5-0.1 0.5-0.3 0.3-1 0-1.5 0.1-0.7 0.3-0.8 2-4 0.7-1 0.8-0.9 5.8-4.4 0.7-1.1 0.5-0.4 1.5-1.1 0.5-0.5 1.4-1.2 4.9-2.6 0.6-0.1 1.2 0.2 0.6 0 0.4-0.2 3.4-3.5 0.6-0.4 1.2-0.3 0.6-0.3 1.7-1.8 2.4-1.4 2.4-0.9 1.3 0.2 2.6 1.3 1.4 0.4 5.2-0.8 2.7 0.7 6.9 4 0.5 0.5 0.4 0.6 0.6 1.3 0.4 0.6 4.1 4.6 4.5 3.4 0.5 0.2 1.8-0.1 0.6 0.2 1 0.1 2-0.4 3 0.7 0.9 0 1-0.3 8.5-5 2.4-0.7 2.3 0.1 2.3 0.9 7.8 3.1 1.2 1.1 1 1.5 0.9 1.7-6 13.4-0.4 1.1-6 13.5-5.9 13.4-0.1 0.7 0.4 1.5 0 0.8-0.5 1.3-7 10.9 0.1 1.1 0 0.7 0.6 8.4-0.1 0.9-4.1 2.6-0.1 0.1-1.1 0.7-2.3 1-0.6 0.8 0 0.4 0.4 2.7 0 0.2 0.9 5.4 0.3 0.2 0.1 0.5 0.7 0.9 7.2 7.7 1.7 0.9 1.7-1.1 3.1-4.1 2.8-1.8 1.7-0.6 5.2 1.2 2 0 7.2-1.6 2-0.1 0.8 0.1 3.4 1.5 2.1 0.8 0.7 0.4 6.9 6.5 1.3 0.1 1.1-1.4 0.5-0.9 0.2-0.2 0.9-1.5 0.5-0.4 1.5-1.3 6-8 0.8-0.7 1.3-0.5 4.5 0.3 0.7 0 1.9-0.9 1.6-0.3 1.7 0 0.7 0.2 1.3 0.8 0.8 0.2 5.4 0.4 2 1 1.8 2.2 3 5 1.5 1.6 5.8 2.6 2.5 0.9 0.7 0.5 0.4 0.6 0.2 0.8 0.3 3 0.2 0.7 0.3 0.5 0.3 0.2 0 0.1 0.3 0.1 0.1 0 2.6 1.1 1.1 0.3 0.6 0.4 0.2 0.6-0.2 0.4-0.6 0.9-0.2 0.6 1.1 0.4 4.4 4 0.4 0.5 0.4 0.8 0.2 0.7 0.4 0.5 0.7 0.2 0.1 0.2 0.4-0.1 0.5 0.2 1.2 0.9 2 2.4 0.8 1.2 0.7 1.5 0.2 0.8 0 2.4 0.1 0.5 0.1 0.3 0.1 0.2 0.4 0.6 0.9 1 0.4 0.5 0.2 0.3 0 0.4 0.2 0.3 0.2 0.3 0.3 0.1 0.5 0 0.3 0.1 0.1 0.3-0.1 0.4-0.2 0.3-0.1 0.3 0 0.6 0.1 0.2 0.1 0.1 0.1 0.2 0.2 0 0.1 0.2 0 0.2-0.1 0.3 0 0.3 0 0.9-0.4 1.3 0 0.7 0.1 0.4 0.4 0.7 0.1 0.3 0 0.4-0.2 0.3-0.2 0.3-0.2 0.3-0.1 0.1-0.2 0.5-0.4 0.4-0.7-0.3-1-0.1-0.2 0.6-0.2 0.3-0.5 0.7-0.2 0.2-0.7 0.4-0.4 0.2-0.8 0.8-0.1 0.1-0.3 0-0.6-0.1-1-0.9-0.6-0.1-0.7 0-2.1-0.4-1.4 0.1-2.5 0.6-1.3 0-7.2-2-0.7-0.3-0.7-0.6-0.8-1.7-0.5-0.7-0.6 0.2-0.7 0.8-0.4 0.3-0.5-0.2-0.3-0.5-0.1-0.7-0.2-0.6-0.6-0.3-0.9 0.3-0.7 0.8-0.3 0.6-0.2 0.2 0 0.1-0.4 0.8-0.6 0.1-0.1-0.1-0.1 0.7-0.3 0.1-1-0.2-1.1-0.6-1-0.4-0.4 0.2-0.8 0.5-0.5 0.2-2.2 0-1.1-0.3-1.8-0.9-1-0.3-0.9-0.1-0.9 0-0.9 0.3-0.9 0.6-1.1 1-0.4 0.1-1.5 0.1-0.5 0.2-2.2 1.7-0.9 0.1-1.4 0.4-0.7 0.3-0.6 0.4-0.3 0.5-0.2 0-0.6 0.9-0.6 0.5-0.1 0-0.1 0.1 0 1-0.4 0.2-1.5 0.2-0.1-0.1-0.1 0.1-1.1 0.1-0.7-0.1-1.2-0.8-0.2-0.2-0.3-0.8-0.5-0.7-0.1-0.1-0.3-0.6-0.4-0.4-0.3 0-1.2 0.9-0.5 0.1-0.1 0-0.5-0.3-2.3 0.6 0.5 1.3 0 0.6-0.2 0.6-1 1.4-0.3 1.1-0.1 2.3-0.7 1.2 0 0.2-1.1 0.3-9.4-0.6-3.6-0.8-0.5 0-0.2 0.1-0.6 0.7-1.8 1.5-0.4 0.2-1.7 0.2-1.2 0.4-0.6 0.5z" id="MN061" name="Dornod">
    </path>
    <path d="M109.2 117.5l0.7 0.4 1.5 0.9 0.3 0.3 0.2 0.2 0.2 0.3 0.7 1.9 0.8 2.7 0.3 1.4 0 0.2 0 1.1 0.1 0.3 0.1 0.5 0.1 0.4 1.9 3 0.4 1 0.5 2.1 0.1 0.2 0.2 0.5 0.2 0.4 0.1 0.5 0.2 0.5 0.2 0.2 0.3 0.3 0.7 0.8 5.3 2.6 3 2.5 0.3 0.7 0.2 0.7-0.1 0.5 0 0.2 0 0.4 0.1 0.1 0.1 0.5 0.5 1.1 0.1 0.2 0.1 0.1 0.8 0.4 1.6 0.1 2.8 0.4 0.7 0.1 0.2 0.1 0.2 0.2 0.1 0.5 0.1 1.2 0 0.3 0 0.2-0.1 0.5 0 0.2 0 0.3 0 0.2 0.1 0.4 0.2 0.3 1.8 2.8 0.2 0.3 0.3 0.2 0.1 0.1 0.6 1.9 1.7 3.8 0.4 0.4 0.7 0.5 2.1 0.7 0.4 0.2 0.2 0.2 0.2 0.3 0.6 1.1 0.9 0.9 0.3 0.4 0.1 0.2 0.4 1 1 3.5 0.1 0.4 0.1 0.3 0 0.3-0.1 1.1 0 0.8-1.4 0.1-2.8-0.7-2.9 0.6-8.5 4-3 0.6-0.1 0.5 0.1 0.4 0.2 0.4 0.3 0.3 2 0.9 0.5 0.4 0.4 0.8 1 3.2 0.1 0.9-0.1 0.6-1.1 1.7-0.4 0.9 0 1.1 0.1 1.3 0.3 1.1 0.6 3.7 0.1 1 0.1 0.6 0.2 0.7 0.5 0.5 1.4 1 0.4 0.5 0.9 1 0.3 0.4 0.3 0.7 1.1 4 2.3 7 0.8 1.5 0.6 0.7 0.6 0.8 0.5 1.1 1.9 5.8 0.2 0.9 0 1.1 0 0.8-0.2 0.7-0.2 0.5-0.2 0.6 0.1 0.8 0.7 1.2 3.9 4.8 1.8 2.8-0.1 1.4-1.3 3.4-0.2 0.9-0.1 0.9 0 0.9 0.3 0.9 0.6 1.1 1.3 1.1 0.8 0.6 1.1 0.4 2.3 1.6 2.9 2.7 2 2.9 2.3 1.5 0 1-0.2 0.8-0.7 0.6-0.5 0.3-4.1-0.6-3.5 0.4-0.5-0.2-0.8-0.6-0.6 0.2-0.3 0.3-0.4 0.7-0.5 1.5-0.5 0.6-0.7 0.2-0.9-0.2-0.9-0.6-0.7-0.9-1.1-1.8-0.6-0.6-0.9 0-0.8 0.1-0.9 0-1.8-0.8-2-0.5 0-0.1-0.2-0.7-0.5-1.2-0.4-0.1-0.8-1.4-0.1 0-0.2-0.4-0.3-0.9-0.4-0.6 0.4-1.2-0.1-0.3-0.3-0.7-0.6-0.7-0.1-1.1-0.6-1-0.4-0.3-0.3-0.5-0.6-0.5-0.6-0.4-0.6-0.2-0.7 0.1-0.6-0.2-1.7-2.2-0.6-1-0.8-0.9-0.7-1.3-0.4-1-0.6-0.8-0.1-0.1-2-3.6-0.4-1-0.3-0.3-0.5-0.7 0-0.4 0.4-0.5 0.1-1 0.4-0.6-0.5-0.5-0.5-0.8-0.6-0.5 0-0.1 0.1-1.5 0.4-0.7-0.1-0.9 0-0.2-1-1.2-0.7-0.3-1.4-2.7-0.2-0.3-0.3-0.6 0.2-1.5 0.2-0.2-0.1-0.5-0.6-0.5-0.6-0.3-0.8-0.2-0.2-0.2-0.4-0.1-0.6-0.1-0.7-0.1-1.3-0.6-1.2-0.9-1-1.1-0.4-0.5-0.2-0.6 0.1-1.3 0.4-1-0.6-0.2 0.1-0.3-0.1-0.8-0.4-0.5-1.2 0-1.1-0.4-0.5 0.3-0.2 0.5 0 0.6-0.1 0.5-0.4 0.5-0.9 0.4-3 0.2-0.9-0.2-0.3-0.5-0.3-1.2-0.1-0.4 0-0.1-0.1 0-0.9-0.6-0.2-0.1-0.1-0.1-0.4 0-0.3-0.2-0.3-0.6-0.3-0.7-0.2-0.6-0.4-0.2-0.5-0.1-0.4-0.4-0.2-0.6 0-0.7 0-0.1 0.6-0.6-0.6 0.1-0.1-0.6-0.8-0.5-1.1 0.1-0.8 0.3-1.4 0-0.5 0-1.1-0.7-0.4 0-0.6 0.3-1.4 1.1-0.5 0.5-0.6 0.6-0.8 0.1-1.4-0.3-2.6 0-0.8-0.3 0-0.1-0.1 0-0.3-0.5-0.3-0.6-0.7-0.8-1.9-2.4-0.4-0.4-0.8-0.2-1.6 0.2-0.4 0-0.2-0.1-0.1 0.1-0.9-0.6-1.9-2-0.8-0.3-0.7 0.1-0.5-0.2-0.4-0.3-0.1-0.4-0.2-0.4-1-1.9-0.1-0.9-0.2-0.6 0.4-0.7 0.3-1.1-0.6-0.4-0.1-0.4-1.6-1.9-0.1-0.3-0.1 0.1-0.7-0.3-0.5 0.1-0.6 0.2-0.6-0.1-0.9-0.5 0-0.1-0.1 0-1.2-1.7-0.3-0.8-0.4-0.3-1-0.5-0.2 0-0.6 0-2.4-0.3-0.6-1-0.5-0.5-1.4-0.7-1.4-0.3-1.3-0.9-0.2-0.3-0.3-0.4 0-0.6 0.8-0.9 0.8-0.6 0-0.4-0.2-0.3 1.1-0.8 0.3-0.4-0.1-0.5 0.1-0.1-0.1 0 0-0.5-0.8-0.9-1.6-1.1-0.6-0.2-1.2 0.1-0.3-0.2-1.2-1.5-0.6-0.7-0.4-0.3-0.2-0.3-0.5-0.4-0.1-0.1-0.2-0.3-0.3-0.2-0.6-0.3-0.4-0.4 0-0.6 0.2-0.5 0-0.1 0.1-0.5 0.5-0.8 1.9-0.9 1-0.9 0-1 0.2-0.2-0.2-0.2 0-0.2-0.4-0.5-0.6-0.2-0.1 0 0-1.4 0.2-0.9-0.3-0.6 0.1-0.5 0-1-0.4-1.3-0.1-0.6 0.6 0.3 0.5 0 2.9-0.4 0.5-0.3 0.5-0.7 1-1 2.3-1.4 1-1 0.1-1.1-0.6-1.3-0.3-1.3 0.5-1.3 0.3-0.5 0.5-1.4 0.3-0.6 0.7-0.5 5.1-0.9 0.7 0 1.3 0.5 0.7 0 1.8-0.1 0.6-0.2 1.1-0.8 0.5-0.1 0.5 0 0.4 0.4 0.8 1 0.6 0.6 0.6 0.1 4.3 0.3 0.1-0.2-0.5-1.4 0-1.7 0.1-0.6 0.2-0.5 0.6-0.2 0.6 0.3 0.3 0.5 0.2 0.7 0.3 0.7 0.3 0.4 0.2 0.5 0.2 0.4 0.4 0.3 1.1-0.2 4.1-1.9 1-0.8 0.6-1-0.4-1.1-0.7-1.2 0.3-1.1 0.8-0.5 1 0.2 1.6 1.6 0.8 0.5 1 0 0.7-0.8 0.6-1.1 0.6-0.8 1 0 1.3-0.9 2.7-0.9 1.8-1 0.6-0.5 0.3-0.7-0.3-0.8-0.5-0.3-1.3-0.7-0.3-0.5 0-0.4 0.4-0.5 0-0.5-0.1-0.2-0.5-0.5-0.2-0.3 0-0.5 0.2-1.7 0.1-0.4 0.3-0.3 0.9-0.8 1.5-0.6 4.1-0.1 1.6-0.4 1.4-0.7 0.7-1.1 0-0.5z" id="MN071" name="Bayan-Ulgii">
    </path>
    <path d="M138.8 258.5l2 0.5 1.8 0.8 0.9 0 0.8-0.1 0.9 0 0.6 0.6 1.1 1.8 0.7 0.9 0.9 0.6 0.9 0.2 0.7-0.2 0.5-0.6 0.5-1.5 0.4-0.7 0.3-0.3 0.6-0.2 0.8 0.6 0.5 0.2 3.5-0.4 4.1 0.6 0.5-0.3 0.7-0.6 0.2-0.8 0-1-2.3-1.5-2-2.9-2.9-2.7-2.3-1.6-1.1-0.4-0.8-0.6-1.3-1.1-0.6-1.1-0.3-0.9 0-0.9 0.1-0.9 0.2-0.9 1.3-3.4 0.1-1.4-1.8-2.8-3.9-4.8-0.7-1.2-0.1-0.8 0.2-0.6 0.2-0.5 0.2-0.7 0-0.8 0-1.1-0.2-0.9-1.9-5.8-0.5-1.1-0.6-0.8-0.6-0.7-0.8-1.5-2.3-7-1.1-4-0.3-0.7-0.3-0.4-0.9-1-0.4-0.5-1.4-1-0.5-0.5-0.2-0.7-0.1-0.6-0.1-1-0.6-3.7-0.3-1.1-0.1-1.3 0-1.1 0.4-0.9 1.1-1.7 0.1-0.6-0.1-0.9-1-3.2-0.4-0.8-0.5-0.4-2-0.9-0.3-0.3-0.2-0.4-0.1-0.4 0.1-0.5 3-0.6 8.5-4 2.9-0.6 2.8 0.7 1.4-0.1 1.3-0.5 1.6-1.4 2.7-3.7 1.8-3 0.9-0.9 2.8-1.7 1.3-0.5 1-0.2 1 0.2 0.7 0.5 0.5 0.5 0.3 0.7 1.9 7.4 0.6 0.4 0.5 0 0.7-0.3 0.5-0.1 0.7 0.1 0.8 0.9 0.6 1.2 1 2.9 0.6 1.2 0.5 0.4 0.7-0.1 1.3-1 0.4-0.2 10.3 2.5 3.1 0.8 1.4-0.6 1.3-1.1 1.2-1.4 1.4-1.1 1.1-0.4 0.9-0.1 1.4 0.3 0.3 0.1 0.2 0.2 0.1 0.1 0.4 0.3 2.3 1.2 0.5 0.6 0.2 0.3 0.1 0.2 0.1 0.3 0 0.2 0.2 1.1 0.2 1.1 0.1 0.5 0.1 0.2 0.2 0.3 0.1 0.2 0.7 0.5 1.8 2 0.6 0.5 2.6 1.4 0.9 0.7 0.3 0.3 0.1 0.2 0 0.3 0 0.2-0.1 0.1-0.1 0.1 0 0.2-0.2 0.4 0 0.3 0 0.4 0 0.8-0.1 0.4-0.1 0.3-0.4 0.9-0.9 1.3-3.4 3.6-1.5 1.3-2 1.3 1.2 3.9 0.6 1.6 0.3 1.5 0.1 1.2 0 1.1 0.3 0.8 3.4 4.7 2.5 4.5 0.1 2.2 0.1 0.7 0.1 0.8 1.2 1.6 2.1 2 5.9 5.4 4 2.6 1.9 0.9 0.4 0.7 0.2 0.8-0.1 1.1 0 1.2 0.4 1.5 0.5 1.6 1.6 2.9 2.6 3.8 1 2.1-0.1 1.5-0.2 0.8-0.8 1.1-1.2 0.9-5.7 2.6-2.6 1.6-3.1 3-1.5 0.5-0.9 0.2-2.9-0.3-0.7-0.2-0.6 0-0.4 0.4 0.1 0.8 0.3 0.8 1.8 3.5 0.4 1.3 0.2 1.4-0.1 1.3-0.4 1.1-3.3 5.8-2.7 6.9-0.1 0.7 0.3 2.1 0 0.7-0.4 0.7-0.7 0.5-0.4 0.5-1 2.3-0.6 0.8-0.7 0.6-3.2 2-0.7 0.7-0.6 0.9-0.2 1.4 0.7 8.9-0.1 4.8-1.5 12.8 0 0.2-0.7 0-0.6-0.1-0.5-0.1-0.6 0-0.3 0.1-1.4-0.5-0.8 0-1.2-0.7-0.4-0.1-0.9 0.2-0.5 0-1.3-0.2-3.2 0.9-1.9 0.1-2.7 0.7-0.5-0.1-1.3-0.5-0.5-0.1-1.3 0.3-0.8-0.3-0.2 0.1-0.8-0.3-0.5 0-1.4 0.4-0.3-0.1-0.4-0.4-1.3-1.4-1.4-0.2-0.6-0.3-0.9-0.2-1-0.1-1 0.1-1.5 0.3-4.9-0.2-0.6 0-1.2 0.4-0.6 0.1-2.8-0.7-0.3 0.1-0.3 0.1-0.1 0-0.6-0.6-0.7-1-0.9-0.9-0.1-0.1-0.5-0.4-0.6 0-0.5 0.4-0.5 0.5-0.4 0.4-0.9-0.5-1 0-1.2-0.2-0.5 0-1.6-0.9-0.4-0.3 0-0.8-0.8-0.5-0.2-0.2-1-0.5-1.2-0.2-1.3-0.1-1 0.2-2 1.1-0.9 0-0.1-0.3 0.8-1.1-0.5-1.9-1.6-0.9-0.3-1-0.3-1.8-0.9-1.8 0.1-0.2-0.8-0.9-0.2-0.2-0.4-0.4-0.6-0.8-0.2-0.1-0.7-1.4 0.4-4.5 1.3-4.7 4.1-7.2 3.2-3 0.1-0.4 0.9-1.9 0.1-1.8 0-0.1 0-0.1-0.8-2.1-0.8-1-0.1-0.9-0.1-0.3-0.5-1-0.5-1.2-0.1-0.3-0.8-1.4 0.7-1.4 1.1-0.7 0.7-2.6 0.7-0.9 0.1-1.5 0.6-0.5 0.6-2.4 0.1-0.1 0-0.4-0.2-0.6-0.2-0.1 0-0.1-0.4-0.6-0.6-0.2 0.9-4.2 0-0.1z" id="MN043" name="Khovd">
    </path>
    <path d="M750.5 211.9l0.3 3.8-0.3 5 4.8-2.6 1-0.3 0.8-0.1 0.8 0 1.5 0.3 5.5 2.6 17.1 3.8 12.9 10.4 5 2.7 0.6 0.5 0.4 0.5 0.2 1.1-0.9 7.6-0.1 3.3 0.1 1.1 0.3 0.8 0.3 0.6 0.5 0.4 0.5 0.3 3.1 1.3 0.9 0.5 0.8 0.6 0.9 0.8 0.8 0.9 1.7 2.5 3.4 6.3 4.8-2.4 2.5-0.7 13-0.5 5.3-1.1 12-0.6 0.6 0.2 0.4 0.4 0.4 0.5 5.8 9.4 2.4 2.8-0.4 0.3-0.6 1.3 0 0.1-1.3 1.9-0.1 0.1-4 4.1-4 8.1-0.2 1.1 0.4 1.2 0.6 1 0.2 0.9-0.6 1.4-1.7 2.4-0.7 0.6-1.1 0.6-0.8 0.1-0.6 0-0.2 0.1-1-0.1-0.3 0.1-0.6 0.6-1 0.9-0.2 0.2-4.8 4.2-2 2.3-0.6 0.5-7.7 2.3-1.9 0.3-2.9 0-0.5 0-0.1 0-1.6 0.1-0.1-0.1-1.1 0.1-1.4 0.1-1.3 0.3-0.5 0.1-0.7 0-0.6 0.2-0.9 0-0.5-0.1-4.8-1.9-0.1 0-0.4-0.3-0.5 0.1-0.3 0.2-0.6 0.1-2.2 0.9-0.7 0-0.5 0.4-0.4 0.2-0.3 0.2-0.1 0.4-0.2 1.8-0.3 0.9-0.8 1.8-1.6 2.3-5.8 5.6-1.4 0.9-0.4 0.4-0.3 0.4-0.5 1-0.9 1.3-0.9 0.8-0.5 0.3-0.5 0-0.7 0.4-0.7 0.2-1.6 0.1-0.7 0.3-0.3 0.3-0.1 0.1-0.2 0.2-0.9 1-0.3 0.3-0.9 0.3-1.1 0.5-0.3 0.3-1.1 1.4-2.5 2.2-1.6-0.4-1 0-0.5 0-0.5-0.5-0.5-0.2-4.8-0.4-0.4-0.1-0.9 0-4.3-0.4-2.5-1.1-1.2 0-6.4-1.8-3.8-1.7-0.8-0.6-0.6-0.8-1.1-2-2.3-2.3-0.9-0.6-0.9-0.2-7.7 0.2-2.7-0.8-0.4 0-0.4-0.1 0-0.1-0.1-2.3 0-1.8 0.1-2-0.1-0.9-0.2-0.7-0.8-1-0.6-0.5-0.7-0.5-0.6-0.6-0.6-0.8-0.3-2.5-0.3-1-0.9-0.9-0.8-0.4-0.4-0.5-0.2-0.3 0-1.3 0.5-10.7-0.4-2.1-0.6-1.9-2.5-5.5-0.5-1.7-0.3-0.7-0.5-0.6-10.5-4.8-0.1-1.3 0.1-0.5 0.3-0.7 1.8-2.6 0.2-0.7 0.2-0.8-0.1-0.8-0.2-0.9-0.9-3.1-0.3-1.3 0-0.9 0.1-3.2 0.4-1.6 0.7-1.5 2.6-4.6 2-3.9 0.7-2.9 1-7.7 0.3-1.2 0.4-1.1 1-1.7 2.9-3.3 0.8-0.8 1.3-0.8 1.2-0.5 0.4-0.1 0.6 0 3.6 0.7 3.3 0.2-0.5-2.5-0.2-1.9 0-1.3 0.2-2.1 0.1-0.8 0.2-0.7 0.2-0.6 0.3-0.6 0.4-0.6 0.5-0.6 0.6-0.6 1.6-1.1 8.7-3.3 1.5-0.2 0.4-0.1 0.7-0.5 0.2-0.1 2-0.3z" id="MN051" name="Sukhbaatar">
    </path>
    <path d="M709.3 277.4l10.5 4.8 0.5 0.6 0.3 0.7 0.5 1.7 2.5 5.5 0.6 1.9 0.4 2.1-0.5 10.7 0 1.3 0.2 0.3 0.4 0.5 0.8 0.4 0.9 0.9 0.3 1 0.3 2.5 0.6 0.8 0.6 0.6 0.7 0.5 0.6 0.5 0.8 1 0.2 0.7 0.1 0.9-0.1 2 0 1.8 0.1 2.3 0 0.1-0.1 0-0.3 0.1-0.3 0.1-0.3 0.3-1.3 0.9-1.1 0.3-0.5 0.3-1.7 1.2-0.7 0.8-0.6 0.9-5.3 10.9-0.3 1 0 0.6 0.1 1.4 0 0.6-0.2 0.8-0.2 0.5-0.6 0.9-0.7 1.6-0.3 0.4-0.1 0.1-0.7 0.7-0.6 1.1-0.5 1.3-0.3 1.1 0 1.6 0.4 0.8 1.8 1.1 0.5 0.7 0.2 0.7 0.2 1.5 0.4 1.5 0.7 1.2 2.5 3.6 1 1 3.2 2.1 0.8 0.9 0.8 1 2.6 4.6 0.4 1.4 0.1 1.1-0.1 1.3-0.3 1.1-0.7 0.4-0.4 0.1-1.4 0.6-2-0.1-0.6 0.3-4.4 5.4-0.8 0.9-1 0.4-3 0.3-0.7 0.3-1.8 1.5-6.9 2.7-3.4 2-1.2 1.1-3.8 5.4-3.3 3.5-0.4 0.8-0.7 1.9-1 1.7-1.1 1.3-2.7 2.2-0.6 0.6-0.7 2-0.6 0.7-7.5 3.3-1 0.6-0.3 0.3-0.3 0.3-0.2 0.3-0.4 0.2-0.5 0.1-1.6 0-2.1 0.3-1.1 0.4-0.4 0.1-1.5 0.8-2.2 0.9-1.5 0.6-0.2 0.2-4.3 3.2-0.1 0-0.2 0-0.2 0.1-0.3 0.1-0.4 0.1-0.4 0.3-0.2 0.1-3.5 0.3-1.4 0.4-0.7 0.1-7.4-0.9-0.9 0.1-2.8 1.5-1 0.3-0.8 0.1-7.4-1.4-3.6 0-0.1 0-0.1 0-2.3 0.1-2.4-0.7-1.7-0.2-3.6 0.6-0.9-18.4 0.1-0.9 0.4-1.6 0.4-1.8 0.1-1.8 0-1.5-0.1-1.5-1.4-7.4-0.3-3.6-0.1-4.7-0.2-5.8-5.9-18.1-2.5-5.1-0.3-0.9-0.1-0.7 0-1.2 1.2-5.7 1.5-1.1 0.4-0.7 0.4-1.2 0.8-6.4 0.4-1.6 0.6-0.7 0.7-0.3 2.1-0.2 10-1.3 2.8-1.7 1.3-2.5 0.9-1.4 1-0.8 0.5-0.2 0.5-0.1 1.1 0.1 0.6-0.2 0.2-0.5 0-0.8-0.6-2.2-2.1-13-0.5-8.2 0.1-3.1 0.7-4.1 1.6-4.8-1.1-0.1-3.8 1.4-0.8-0.4-0.8-0.8-1-1.9-0.4-0.5-0.3-0.6-0.3-1.4 0.1-1.2 0.8-6.1 0.1-2.7-0.1-0.9-0.3-1.2-0.7-2-1-1.7-4.5-4.8-0.5-0.7-0.1-0.6 0.3-0.6 0.6-0.8 2.7-2.3 0.3-0.4-1.4-0.2-1.9 0-1.2-0.3-0.9-0.3-0.8-0.8-0.6-0.8-0.4-1.8 1.3-0.7 1.4-0.4 1.8-0.4 2.5 0 4.3 0.8 3.5 0.5 4.5-2.2 2-1.1 1-1 0.4-0.5 1.9-4.8 3.5 1.6 0.5 1.6 0.1 0.6 0.1 0.9-0.1 2.9 0 0.3 0.3 0.3 0.3-0.1 0.2-0.1 1-1.5 0.5-0.5 0.5-0.3 0.5 0.2 0.4 0.6 0.3 1.1 0.1 1.2 0.1 1.1-0.1 0.8-0.2 1.1-0.5 1.3-2.1 4-0.3 0.8-0.2 0.9 0 0.5 0 0.8 0 0.4 0.2 0.7 0.2 0.3 0.9 1.9 2.6 2.6 0.7 1.3 0.9 2.4 0.6 0.9 0.8 0.7 4.2 3 2.8 0.3 7-0.7 1.3-0.5 1.3-0.8 4.5-3.7 0.2-0.4 0.9-2 1.1-3.8 0.1-0.7-0.1-0.8-0.7-3.8 0-1.2 0.3-0.5 1.2-0.2 1.6 0.1 0.7 0.4 0.8 0.8 0.8 1.6 1.6 2.5 4.6 4.8 0.6 0.8 0.5 1.2 0.8 2.5 0.9 1.5 2.4 2.4 5.9 3.7 1.9 0.7 1.6 0 1.9-1.3 5.4-5z" id="MN063" name="Dornogovi">
    </path>
    <path d="M196.3 326.9l0-0.2 1.5-12.8 0.1-4.8-0.7-8.9 0.2-1.4 0.6-0.9 0.7-0.7 3.2-2 0.7-0.6 0.6-0.8 1-2.3 0.4-0.5 0.7-0.5 0.4-0.7 0-0.7-0.3-2.1 0.1-0.7 2.7-6.9 3.3-5.8 0.4-1.1 0.1-1.3-0.2-1.4-0.4-1.3-1.8-3.5-0.3-0.8-0.1-0.8 0.4-0.4 0.6 0 0.7 0.2 2.9 0.3 0.9-0.2 1.5-0.5 3.1-3 2.6-1.6 5.7-2.6 1.2-0.9 0.8-1.1 0.2-0.8 0.1-1.5-1-2.1-2.6-3.8-1.6-2.9-0.5-1.6-0.4-1.5 0-1.2 0.1-1.1-0.2-0.8-0.4-0.7-1.9-0.9-4-2.6-5.9-5.4-2.1-2-1.2-1.6-0.1-0.8-0.1-0.7-0.1-2.2 6.9-0.8 3.5-1.4 3.7-2 2.7-1.8 0.8-0.2 1 0 1.5 0.3 1.2 0.5 0.7 0.5 0.9 0.8 0.4 0.2 0.3 0.1 2 0.3 3.3 1.1 3.7 0.4 3.3-0.1 0.5-0.1 1-0.4 0.3-0.1 0.9 0.1 0.8-0.1 2.4 0.8 0.9 0.4 0.5 0.6 0.6 0.9 0.5 0.8 0.4 0.8 0.3 0.5 0.3 0.3 0.5 0.5 1 0.1 1.2-0.7 0.8-0.3 7.2 0.4 1.2 0.9 1 0.5 0.9 0.3 0.3 0.1 1.7 1.7 1.9 1.4 10.3 6.6 0.8 0.4 0.4 0.1 1 0.5 0.6 0.7 0.4 0.6 0.6 2.1 0.7 1.5 1.6 2.1 0.6 1.1 0.6 2.9 0.6 1.7 0.4 0.9 0.3 2.5 1 0 7.3-2.3 1 0.2 1 0.6 2.4 1.2 0.3 2.6 0.2 1.1 0.5 1.3 0.8 1.4 2 2.2 0.3 0.7-0.1 1.4 0.1 0.6 0.2 0.4 1.4 0.2 3 0.1 0.2 0 0.5 0.2 0.6 0.4 0.3 0.1 0.4 0 0.7-0.1 0.5-0.1 0.9-0.6 1.5-1.4 0.3-0.3 0.4-0.7 0.1-0.2 0.2-0.1 0.5-0.1 1.2 0 1.4 0.9 2 1.3 2.3 0.6 0.3 2.8-0.2 3.4 0 1 0.2 0.9 0.3 1 0.6 1.8 0.3 0.5 0.4 0.5 1.3 0.7 0.6 0.5 0.4 0.8 0.6 1.9 0.6 0.7 2.4 1.8 0.8 0.8 1.1 1.5 0.6 0.5 0.6 0.4 1.4 0.4 0.9 0.2 0.8 0.2 0.5 0.3 1 1.2 5.4 7.6 0.8 1.7 0.5 2.5 1.6 11.4-0.2 1.6-0.3 2.1-3.3 11.2-0.9 1.8-0.4 0.4-1 1-0.5 0.4-0.4 0.8-0.2 0.9-0.1 1.4 0 1.3 0.5 5.2 0 4.1-0.2 1.2-0.4 1.8-0.5 1.2-0.7 1.1-0.4 0.6-0.6 0.6-1.4 1-3.6 1.9-0.4 0.6-0.2 0.8 0 3.6 1 10.1 0 1.1-1.3 10.8 0.3 3.5-0.1 1.2-0.2 1.3-2.2 7.2-1.4 3-0.2 1.1 0 1.2 1.5 20.2-9.3-1.2-3.6-0.5-5.8-1.1-0.5 0.1-1.2 0.3-0.6 0.2-7.8 0.8-10.1 1.1-2.3 0.4-0.2-0.9 0.1-1.9-0.5-2.5-0.1-2.2-3.2-3.2-1.4-1.2-2.7-2.4-0.9-1.2-1.6-1.5-1.4-1.1-0.9-1.1-1.2-1.6-0.6-0.8-0.1-0.8-0.2-2.4-0.4-1.5-0.1-1-2.6-5.8-0.2-0.4-0.5-1-0.1-0.6-2.4-6-0.3-2.7-0.2-0.5-0.6-1-1.4-3.5-0.6-1-3.1 0-2.4-1.1 0-0.3-0.4-0.3 0-0.4 0.5-0.7 0-0.4 0.2-1.2 0.2-2.4 0.2-0.7 0.1-1 0-0.4 0.3-0.3 1-0.8 0.3-0.3 0-1.1-0.4 0-2.9 0.5-4 0.5-0.9-0.2-1.7 0.5-0.7 0.1-1.1-0.1-1-1-1.5-0.5-0.6 0.1-1.6-0.5-1.4-0.7-0.6-0.2-1.3-0.4-0.4-0.8-0.6-1-0.1-0.4-1.3-1.5-1.1-0.7-1-0.6-0.8-0.7-0.6-0.3-0.3-0.3-1.3-0.7-0.5-0.1-1.4 0.1-0.7-0.1-0.7-0.3-0.1-1.3-0.2-1-0.7-0.4-0.9-0.4-0.3-0.6-1-1.5-1.7-1.1-0.8-0.6-1.1-0.8-1.6-1-1.5-0.9-1.3-0.7-1.1-0.4-1.3-0.8-1.3-0.8-2.4-1.1-0.5-0.8-1.1-0.5-0.4-0.2-3.4-2.3-0.7 0.3-0.1 0-1.2-0.1-1.2-0.5-1.3-0.7-0.9 0.1-0.3-0.1-0.6-0.1-0.5 0.1-0.7-0.2-1.4-0.5-0.6-0.1-0.9 0-0.2-0.1-0.8-0.1-1.7 0.2z" id="MN065" name="Govi-Altai">
    </path>
    <path d="M331.2 416.3l-1.5-20.2 0-1.2 0.2-1.1 1.4-3 2.2-7.2 0.2-1.3 0.1-1.2-0.3-3.5 1.3-10.8 0-1.1-1-10.1 0-3.6 0.2-0.8 0.4-0.6 3.6-1.9 1.4-1 0.6-0.6 0.4-0.6 0.7-1.1 0.5-1.2 0.4-1.8 0.2-1.2 0-4.1-0.5-5.2 0-1.3 0.1-1.4 0.2-0.9 0.4-0.8 0.5-0.4 1-1 0.4-0.4 0.9-1.8 3.3-11.2 0.3-2.1 0.2-1.6-1.6-11.4-0.5-2.5-0.8-1.7-5.4-7.6-1-1.2-0.5-0.3-0.8-0.2-0.9-0.2-1.4-0.4-0.6-0.4-0.6-0.5-1.1-1.5-0.8-0.8-2.4-1.8-0.6-0.7-0.6-1.9-0.4-0.8-0.6-0.5-1.3-0.7-0.4-0.5-0.3-0.5-0.6-1.8-0.3-1-0.2-0.9 0-1 0.2-3.4-0.3-2.8-0.1-2.3 0.2-0.9 1.2-3 4.4-13.7 0.2-1.2 0.1-1.3 0.2-1.2 0.5-0.8 0.8-0.5 1-0.1 2.7-0.1 1.7-0.4 1.7-0.7 2.3-3.5 0.8-1.7 0.4-1.2-0.2-0.8-0.2-0.8 0-1 0.4-0.6 1.3-1.4 0.8-1.4 0.5-1 0.3-0.8 0.2-0.8 0.2-1.1 0-0.5 0-0.3-0.1-0.3 1.8-1.7 1.1-0.7 2.8-0.9 2.3-0.3 0.5 0.1 0.5 0.2 0.5 0.2 0.3 0.4 0.4 0.4 0.7 1.8 0 2.7 0.4 0.8 0.5 0.6 5 3.3 0.7 0.3 0.9 0 3.4-0.1 2.4-0.4 0.8-0.3 0.5-0.3 0.6-0.4 1.4-1.9 0.6-0.4 0.7-0.2 1.8-0.3 0.6-0.4 0.5-0.4 0.5-0.7 0.7-0.7 2-1.2 0.7-0.1 0 3.3 0.2 1.3 0.4 1 0.5 0.7 0.8 0.8 2.1 1.7 0.7 1 0.4 1.1 0.1 1-0.1 1.1-0.2 2.1 0 1 0.1 1.2 0.3 0.7 0.3 0.8 0.1 0.6 0.1 0.6-0.1 0.8 0 0.8 0.2 1 0.3 0.7 0.5 0.4 0.6 0 2.5-0.6 9.9-3 0.9-0.2 0.6 0.1 0.3 0.4 0.3 2.6 0.4 1 0.7 1.1 0.4 1 0.4 1.5 0.2 0.4 0.3 0.2 1.5 0.4 0.9 0.3 0.9 0.8 0.5 0.8 0.6 1.9 0.4 0.9 0.4 0.6 0.6 0.4 2.1-0.1 2.1-0.7 1 0 3.1 0.5 1.3-0.1 3.5-0.8 0.7 0.3 1.7 1.8 1.1 2.1 0.3 0.5 3.2 3.2 2.7 3.4 0.2 3.3 0.2 0.7 0.2 0.7 0.4 0.5 0.1 0.6-0.1 0.8-2.5 3.2-0.5 1.1 0.3 0.7 0.4 0.4 0.4 0.7 0.3 1 0.2 2.1 0 1.6-0.2 0.8-0.2 0.5-0.5 0.7-0.7 0.6-0.9 0.4-1.5 0.6-0.6 0.5-0.5 0.7-0.4 0.9-0.4 0.9-0.2 1 0.1 3.5 0.4 2.1 0.1 1.4-0.1 1.6-1.2 4.3 0.1 2.1-0.1 1-1 2.6-1.3 1.8-1.6 1.6-0.3 0.5-0.2 0.6 0 0.8 0.4 2.1 0 0.9-0.1 1.2 0.1 0.6 0.2 0.6 0.3 4.3 0.2 1.5 0.4 1.8 0.3 0.9 0.3 0.8 0.6 0.6 0.7 0.5 3.5 1.1 1.8 1.1 1.1 1 2.6 1.6 0.6 1.1-0.8 2.2-1.1 2.8-0.1 0.4 0 0.6 0.1 0.7 0.4 1 1.3 2.9 0.8 2.3 4.6 18.6-14 8.6-1.4 0.5-0.6 0.1-21.8-0.3-2.5 0.5-2-0.7-4.1-4.2-3.2-4.3-4.8-4.4-0.4-0.3-0.4-0.1-0.4 0.1-8.5 2.2-0.2 0.3-0.1 0.5-0.1 2.5 1.3 32.4 2.9 23.3 0.1 0-4.2 1.2-11.5-1.5-11.5-1.5-11.4-1.5-11.5-1.6z" id="MN069" name="Bayankhongor">
    </path>
    <path d="M609.8 346.5l-1.2 5.7 0 1.2 0.1 0.7 0.3 0.9 2.5 5.1 5.9 18.1 0.2 5.8 0.1 4.7 0.3 3.6 1.4 7.4 0.1 1.5 0 1.5-0.1 1.8-0.4 1.8-0.4 1.6-0.1 0.9 0.9 18.4-9.3 1.5-1.5-0.1-1 0.4-1.5 0.2-1.8-0.3-1.8-1.7-1.6 0.2-1 0.5-1.4 0.2-1 0.8-0.8 1.3-1.1 0.3-0.4 0.3-0.8 0.5-11.2 1.8-12.7 5.6-12.7 5.5-11.2 5.9-2 1-1.2 1-0.4 0.2-0.5 0.2-1.5 0.8-1.6 0.2-0.5 0.2-5.2 5.6-0.9 0.3-0.5-0.7-1.1-1.1-0.3 0-0.1-0.1-0.6-0.2-8.2-0.1-1.6-0.2 0-0.4-0.8-0.2 0-7-0.5 0 0-0.7-11 2.2-7.6 1.5-5.6-1.3-1.4-0.5-3.7-1.2-1.8-0.9-8.3-4.5-0.9-0.4-1.5-0.3-0.3-0.2-0.4-0.2-2.5-1.1-1.6-1-0.4-0.2-1.3-0.9-2-0.8-2.4-0.3-1.9 0-1.3-0.5-0.9 0.8-1-0.3-1.1-0.2-1.4 0-1.7-0.3-2-1.1-1.4-0.4-0.9 0.2-1.5-0.6-0.7-0.9-1.4-1.9-0.7-1.1-5.5-7.5-1.3-0.5-4.4-0.4-0.6-0.1-0.1 0-0.6-0.1-3.3-0.6-1.3-0.3-1.8-0.6-10.3-2.8-2.9-1-1.5-0.3-2.6 0.1-2.9 0.4-2.8-0.5-5 0.1-1.3 1-7.9-1.3-1.3 0-9.8 3.1-0.1 0-2.9-23.3-1.3-32.4 0.1-2.5 0.1-0.5 0.2-0.3 8.5-2.2 0.4-0.1 0.4 0.1 0.4 0.3 4.8 4.4 3.2 4.3 4.1 4.2 2 0.7 2.5-0.5 21.8 0.3 0.6-0.1 1.4-0.5 14-8.6 2.2-1 8.3-2.6 14.2-1.1 10.5 0.8 0.1-0.6-0.3-1.1-1.7-4.8 0-1.3 0.3-1.1 1.4-1.2 0.4-0.7 0.5-1.1 0.5-1.9 0.4-1.3 4.9-10.6 0.8-1.5 5.9-3.2 4.8-3.7 0.8-0.9 0.6-0.9 2-3.8 0.3-0.7 0.1-0.7 9.3 0.2 0.6 0.8 0.2 0.3 0 0.2 0 0.2-0.1 0.8 0 0.5 0.1 1.6 0 0.2 0 0.2-0.1 0.3-0.3 0.5 0 0.3 0 0.2 0 0.3 0 0.2 0.1 0.5 0.1 0.3 0 0.3 0 0.5-0.1 0.9-0.1 0.5-0.1 0.3 0.1 0.4 1.1 2.4 0.7 0.8 0.7 0.6 2.1 0.7 12.6 2 11.6 1.3 8 0.8 1.7 0.4 0.6 0.4 3.6 6.6 1.8 2.6 0.8 1.6 0.4 1 0 0.8 0 0.8 0.4 1 0.5 0.8 2.3 1.9 2.1 1.3 2.2 0.9 0.9 0.2 8.8-1.4 2.5-0.4 1.3-0.4 2.1-0.9 2.5-2 2-1.1 16.2-5.6 0.8 0 1.3 0.2 2 1 0.6 0.1 2.8-0.4 4.6-1.5z" id="MN053" name="Umnugovi">
    </path>
    <path d="M466 100.1l-0.1 0-1.5 0.9-1.8 1-1.2 1.2-1.1 1.2-0.3 0.4-0.3 1-0.2 0.5-0.3 1.8-0.6 1.4-0.2 0.4-1 1.1-0.6 0.5-0.6 0.6-0.7 0.7-0.8 1.1-0.1 0.6-1.2 1.7-1.2 1.3-0.6 1-0.2 0.8 0 0.7 0.1 0.7 0.1 0.4 0.3 0.4 0.5 0.4 1.5 0.9 2.3 1 2.4 0.8 3.6 1.7 2 0.6 2.3 1.1 2.3 1.3 0.8 0.8 1 1.1-2.3 1.8-0.9 0.5-0.4 0.1-0.6 0-1.6-0.3-0.5 0-0.6 0.1-0.6 0.4-0.2 0.2-0.3 0.5-0.9 2.6-0.8 1.6-0.3 0.5-1.1 1.3-1.3 1.1-0.5 0.3-1.3 0.6-2.3 0.8-1.2 0.1-1.3 0.5-2.1 0.5-1.7 0.7-0.6 0.4-0.5 0.5-1.1 1.3-1.3 1-0.2 0.6-0.4 0.7-0.7 0.8-0.7 0.4-0.4 0.1-1.2 0.2-1 1.1-0.4 0.7-1 2.7-0.2 0.7 0 0.7 0 1.1 0.5 2.8 0.1 0.3-5.8 1.2-3.1-0.2-0.9-0.5-6.6-4.8-8.7-4.7-0.8-0.4-0.7 0.1-0.3 0.4-0.2 0.2-0.1 0.2-0.1 0.2 0 0.2-0.1 0.9-0.1 0.3-0.4 0.6-0.4 0.6-1.1 0.8-0.5 0.5 0 0.3 0 0.4-0.2 0.3-3.3 0.8-0.6 0-0.5-0.6-0.4 0.4-0.1 0.5-0.1 0.6-0.1 0.2 0.1 0.5 0.2 0.3 0.3 0.2 3.4 1.9 0.6 0.8 0 0.2 0 0.2-0.3 0.4-0.1 0.3-0.7 0.5-0.2 0.1-0.2 0.1-0.1 0-0.4 0.1-0.3 0.2-1.2 0.8-0.4 0.2-0.6 0.3 0 0.2 0 0.2 0.1 0.2 0 0.3-0.2 0.2-0.3 0.5-0.6 0.5-0.4 0.7-0.2 0.4 0.1 0.2 0.4 0.2 0.1 0.1 0.1 0.2-0.2 0.2-0.5 0.5-0.1 0.2-0.1 0.2 0.1 0.2 0.1 0.2 0 0.4-0.3 0.4-0.2 0.8-0.2 0.5 0 0.5 0 0.3 0.3 0.7 0 0.5 0.1 0.6 0.2 0.4 0.3 0.6 0.2 0.3 0.1 0.2 0.2 0.1 0.3 0.1 0.6 0.1 0.2 0.1 0.1 0.1 0.3 0.3 0.6 0.9-1.2 1-2.5 0.8-2.6 0.5-0.8 0.5-0.3 0.8 0.2 0.9 0 0.8-0.3 1-0.9 0.4-1 0.2-0.9-0.2-0.7-0.3-4.3-2.5-1-0.5-2.7-0.1-0.6 0.2-0.6 0.5-0.3 0.6-0.3 0.9-0.3 3.5-0.4 0.9-0.4 0.5-0.5 0.1-6.3 0.6-0.7-0.2-0.6-0.2-0.6-0.4-0.6-0.2-0.3 0.1-0.4 0.4-0.4 0.6-0.5 0.7-0.8 0.6-0.8 0.2-0.7-0.1-0.9-0.5-2.4-2.7-0.2-2.8-1.7-6.1-0.3-1.5-0.1-1.3 0.1-0.9 0.1-0.7 0.2-0.6 2-3.3 0.5-1.1 0.5-1.3 0.5-1.9 0-0.6-0.2-0.8-0.7-2.2-0.4-2.6-0.6-5.2-0.2-1-0.2-0.6-0.5-0.5-8.8 0.9-1.4 3-1.5 2.1-1.6 1.1-0.7 0.2-1.1 0.1-0.6-0.2-0.6-0.3-1.3-1-1-0.6-2-0.7-3.9-0.5-2.8 0.2-0.8 0.2-0.9 0.4-1.8 0.6-1.3-0.1-0.7-0.3-8.6-6.4-1.6-0.7-2.9-0.1-5.4-0.4-2.3-0.6-1.4-0.9-5.9-5.6-0.7-1-0.5-1.6 0-0.7 0-1.1 0.3-1.3 0.2-0.7 0.4-1 0.4-0.6 1.3-1.7 2.3-2.1 2.5-1.7 0.6-0.7 0.3-0.5-0.2-0.5-1-1.5-0.2-0.5-0.2-0.4-0.1-0.5-0.1-0.4 0-0.2 0.4 0.2 0.5 0.3 0.3 0.8 0.7 1.1 1.4 0.7 1.7 0.4 1.1 0 1.2-0.4 1.3-0.6 2.4-1.8 1.9-1.4 0.9-1.1 0.2-1.4-0.3-0.8-0.2-0.5 0.1-0.4 2.1-0.5 2.6-1.3 0.6-0.1 0.6 0.2 1 1.1 0.5 0.3 0.5-0.3 0.8-1 0.9-0.8 4-2.2 1.6-1.8 4.4-9.7 0.2-0.7 0.1-0.9-0.1-0.7-0.2-1.4 0.1-1.5 0.9-2.7 0.1-1.4-0.2-1.1-0.5-0.9-0.7-0.6-0.7-0.3-1.8-0.3-0.7-0.3-2.2-1.7-0.6-0.6-0.4-0.8-1.4-3.7-0.9-2.3 0.1-0.9 1.2-1.8-0.1-0.5-0.9-0.7-0.4-0.5-0.3-0.6-0.3-0.5-1.3-0.8-1-1.1-0.8-1.3-0.1-1.4 1.8-3.9 0.5-1.5 0.2-1.5 0.2-0.6 0.8-2.1 0.1-0.7-0.1-1-0.4-1.5 0-0.7 0.2-0.8 0.3-0.6 0.8-1.1 0.4-0.6 1.3-3 0.5-1 0.4-0.4 0.4-0.1 1.3-0.7 0.7-0.1 2.3 0.5 0.3-0.8 0.1-1.1-0.2-2 0.1-1 0.3-0.8 0.7-1.6 0.2-0.9 1.7-2.9 2.6-1.2 5.5-1.6 0.9-0.8 0.9-1 0.8-1.2 1.9-3.9 0.4-2.1 0.2-0.7 1.1-1.5 0.2-0.7 0.1-0.7 0-1.6 0.2-0.8 0.9-1 1.1 0 0.3 0.2 0.7 0.6 0.4 1.4 0.5 1.1 0.9 0.6 4.9 1.7 1 0.6 0.6 0.8 0.5 0.8 0.6 0.7 0.8 0.5 6.6 1.9 3.5 0.1 0.8 0.4 2.1 2 1.9 2.2 1.9 1.8 2.5 0.8 2.6-0.3 3.2 0.6 8.5-0.1 1.7 1 1.9 0.6 12.2 6.3 1.3 1.2 1.2 0.3 1.2 0 1.1 0.3 1.1 1 1 1.3 1 0.6 1.1 0 2.6-1 1.3-0.1 1.2 0.2 2.1 0.9 1.5-0.1 0.8 0.1 0.5 0.3 1.5 1.1 0.7 0.3 2.3-0.2 0.5 0.2 1 0.9 0.5 0.3 2.2 0.1 0.7 0.4 0.4 0.5 2.7 1.8 0.2 0.8-0.4 0.9-1.2 2.1-0.1 0.5 0.2 0.4 0.2 0.8 0.1 0.8 0 0.8-0.2 1.5 0.1 1.7 0.5 1.8 0.8 1.6 0.8 1.3 0.3 0.6 0 0.6-0.2 0.7-0.3 0.5 0.7 1.2-0.2 1.2-0.5 1.3-0.3 1.2 0.4 1.4 0.8 0.9 1.8 1.3 0.6 1.3-0.3 1-0.7 1-0.5 1.1-0.2 1.3 0.3 1.3 0.6 1.2 0.7 0.9 1.3 0.5 2.8 0.4 1.2 0.9 2 3.9 0.9 0.7 0.1 0.1z" id="MN041" name="Khuvsgul">
    </path>
    <path d="M438.7 161.2l-0.1-0.3-0.5-2.8 0-1.1 0-0.7 0.2-0.7 1-2.7 0.4-0.7 1-1.1 1.2-0.2 0.4-0.1 0.7-0.4 0.7-0.8 0.4-0.7 0.2-0.6 1.3-1 1.1-1.3 0.5-0.5 0.6-0.4 1.7-0.7 2.1-0.5 1.3-0.5 1.2-0.1 2.3-0.8 1.3-0.6 0.5-0.3 1.3-1.1 1.1-1.3 0.3-0.5 0.8-1.6 0.9-2.6 0.3-0.5 0.2-0.2 0.6-0.4 0.6-0.1 0.5 0 1.6 0.3 0.6 0 0.4-0.1 0.9-0.5 2.3-1.8-1-1.1-0.8-0.8-2.3-1.3-2.3-1.1-2-0.6-3.6-1.7-2.4-0.8-2.3-1-1.5-0.9-0.5-0.4-0.3-0.4-0.1-0.4-0.1-0.7 0-0.7 0.2-0.8 0.6-1 1.2-1.3 1.2-1.7 0.1-0.6 0.8-1.1 0.7-0.7 0.6-0.6 0.6-0.5 1-1.1 0.2-0.4 0.6-1.4 0.3-1.8 0.2-0.5 0.3-1 0.3-0.4 1.1-1.2 1.2-1.2 1.8-1 1.5-0.9 0.1 0 4 1 3.5 2.7 1.2 0.5 1.3 0.3 4.4-0.6 2 0.6 1.1 2.3 0.4 1.3 0.6 0.8 0.9 0.3 2.8-0.3 0.9 0.2 1 0.5 1.7 1.2 1.9 0.9 1.9 0.1 3.3-2.4 1.7 0 3.6 1.6 1.9 0.4 2.3-0.4 2.2-0.9 1.4-1.6 0.6-1 1.5-1.1 0.8-0.8 2.7 2.4 2.2 3 0.3 0.7 0.4 1.4 0.1 0.8 0.1 1.5 1.7 1.8-0.2 0.3-0.2 0.4-0.5 0.2-0.6 0.2-1.3 0.1-0.1 2.3 0.1 1.5 0.2 0.9 0.3 0.8 1.1 1.5 3.2 3.5 0.6 1 0.7 1.4-1.7 1.8 0 4.5-0.1 1.5-0.2 0.9-0.6 2.4-0.7 1.3-0.6 1.7-0.5 2.8-0.7 2.9-0.4 3.3-0.5 2.1-1.4-0.7-0.8-0.2-1.1-0.2-0.7 0.1-0.7 0.2-0.3 0.2-1.7 1.7-4-1.3-1.1-0.4-1.2 1.1-1.7 2.3 0 2.4 5.2 1.5 1.6 0.2 1.7 0.8 0.9 0.6 1.3 0.6 1.3 1.3 1.3 1.1 0.9 1.2 1.1 1.1-0.1 0.3-0.3 0.6-0.3 0.4 0.2 0.3-0.4 0.7 0.3 3.1 0.2 1.7 0.3 3.7 0 3.3-0.1 1.8-0.5 1.9-0.3 0.6-0.3 0.3-1.5 1.1-1.2 1.2-1 1.8-0.7 2-0.3 0.8-1.2 2 1.2 1.3 1.4 2.1 0.2 0.9 0.2 2.2 1.2 0.8 1.7 0.6 1.6 0.3 2.9 0.1 0.3-0.1 0.3-0.2 0.4 0.1 0.2 0.1 0.2 0.2 0.1 0.4 0.1 1.1-0.6 0.6 0.1 2 0.1 1.3 1.2 4.6 0.6 1.9-2.9 0.3-3.7 0-0.4 1-0.8 1.3-2.2 0-1.5 0.1-0.7 0.1-1.3 0.5-3.6 2.4-1.2 1.2-1.3 1.2 0.5 1.6 0.3 0.5 0.4 0.5 0.6 0.6 0.9 1 0.2 0.4 0.1 0.6 0 0.6-0.7 1.3-2.1 0.6-3.5 0.8-2.4 0.3-0.6-0.1-1-0.1-0.7-0.1-1 0.1-2 0.5-0.2-1.7-0.3-2-1.9-1.9-1.2-0.9-1.8-1.7-1.3-0.9-1.2-1.1-0.9-1.3-0.7-0.9-0.9-1.5-0.6-1.5-0.9-1.5-1.4-1.9-0.7-0.5-0.6-0.3-0.7-0.1-1.3-0.1-0.7-1.2-0.9-2-0.2-0.6-0.4-1.2-1.6-0.8-1.9-0.9-0.5-0.4-0.5-0.5-0.2-0.3-0.1-0.8-0.3-3.1-0.4-2.1-0.3-1.1-0.8-1.4-0.8-1.2-0.6-1.3-1.4-2-1.4-1.4-1.6-0.2-1.4 0-0.6-0.2-0.7-0.2-1.8-1.4-0.5-0.4-0.8-1-0.3-2.4-0.4-1.1-0.7-0.8-1.4-1-0.5-0.5-0.4-0.6-0.3-0.6-0.2-0.9 0.1-1.2 0-0.7-0.7-4.9-1.1-3.8-0.8-2-1.2 0.7-1.2 0.8-0.8 0.2-0.6 0-0.6-0.2-0.5-0.3-0.3-0.6-0.3-0.8-0.3-0.6-0.7-0.8-0.6-0.4-0.3-0.2-0.7-0.1-1.1-0.1-1.4-0.9-0.6-0.6-0.6-0.5-1-1.3-0.4-0.8-0.3-1.6z" id="MN067" name="Bulgan">
    </path>
    <path d="M147.4 174l0-0.8 0.1-1.1 0-0.3-0.1-0.3-0.1-0.4-1-3.5-0.4-1-0.1-0.2-0.3-0.4-0.9-0.9-0.6-1.1-0.2-0.3-0.2-0.2-0.4-0.2-2.1-0.7-0.7-0.5-0.4-0.4-1.7-3.8-0.6-1.9-0.1-0.1-0.3-0.2-0.2-0.3-1.8-2.8-0.2-0.3-0.1-0.4 0-0.2 0-0.3 0-0.2 0.1-0.5 0-0.2 0-0.3-0.1-1.2-0.1-0.5-0.2-0.2-0.2-0.1-0.7-0.1-2.8-0.4-1.6-0.1-0.8-0.4-0.1-0.1-0.1-0.2-0.5-1.1-0.1-0.5-0.1-0.1 0-0.4 0-0.2 0.1-0.5-0.2-0.7-0.3-0.7-3-2.5-5.3-2.6-0.7-0.8-0.3-0.3-0.2-0.2-0.2-0.5-0.1-0.5-0.2-0.4-0.2-0.5-0.1-0.2-0.5-2.1-0.4-1-1.9-3-0.1-0.4-0.1-0.5-0.1-0.3 0-1.1 0-0.2-0.3-1.4-0.8-2.7-0.7-1.9-0.2-0.3-0.2-0.2-0.3-0.3-1.5-0.9-0.7-0.4 0.1-0.9 0.2-1.2 0.4-0.8 0.9-0.6 3.7-0.8 1.1-0.6 3.4-2.6 0.6-0.2 1.2-0.2 0.5-0.2 1.4-1.2 1.3-0.1 2.4 0.5 1.2 0 0.6-0.2 0.4-0.2 0.5-0.4 0.4-0.6 0.1-0.6 0-1.3 0.3-0.5 1-0.6 2.2-0.7 1-0.8 2-2.6 0.8-0.7 1-0.5 3.3 0 1-0.3 2.7-1.5 1.1 0 2.4 0.5 0.9-0.3 0.5-0.7 0.2-1 0.3-0.9 0.7-0.7 2.9-1.2 0.7-0.8 1.4-2.7 0.8-0.7 2-1.2 2.1-0.8 2.1-0.2 4.6 0.9 2.7-0.1 2.4-1.4 1.5-3.2 0-0.8 0-0.8 0.2-0.7 0.4-0.6 0.5-0.3 0.7-0.3 0.7 0.2 0.4 0.6 0.6 1.8 0.7 1.1 0.9 0.7 1.1 0.5 1.1 0.8 1.6 2.4 1.1 0.6 0.6 0 0.7-0.3 0.6-0.5 0.5-0.6 0.3-0.7 0.2-1.5 0.2-0.7 1-0.8 1.8-0.3 1.8 0.1 1.1 0.7 0.4 1.6 0 2.1 0.5 1.8 0.3 0.9 0.2 0.5 0.4 0.3 0.5 0.3 1.8 0.5 0.9 0 1.4-0.1 6.6-0.4 3.3 1.1 9.9 0.4 9.9 0.5 0.6 0.3 0.4 0.6 0.1 0.7 0.1 1.6 1.1 2.8 0.2 1.1 0.2 4.6 0.3 2.3 0.3 1.1 0.4 0.9 0.6 0.8 2.4 1 0.5 0.5 0.2 0.5 0.1 0.7 0.2 0.6 0.3 0.6 1.2 1.2 0.3 0.5 0.5 1.3 0.3 0.4 0.6 0.2 0.8-0.1 2.7-1 4.9-0.2 0.9 0.2 0.8 0.7 0.6 1.4 0.5 1 0.2 0.3 1.4 0.8 7.9-0.1 1.2 0.4 1.3 1 0.5 0.6 0.4 0.3-0.5 0.8 0.1 1.4 0.4 1.9 0.2 2.4 0 0.6-0.1 0.2-0.1 0.4-0.5 1.5-0.2 1 0 1.1 0.3 1.3 0.7 1.7 0.3 0.9 0.4 1.7 0.2 0.6 0.5 0.7 0.8 0.6 1.7 1 0.7 0.6 0.5 0.8 0.4 0.8 0.2 1.2-0.1 2.4-2.4 4.9-0.3 1.3 0 1.4 0.2 1.2 0.2 1.1-0.2 1-0.4 1.1-0.2 1-0.1 0.9 0 1.4 0 0.4-0.4 1.7-1 2-0.9 0.4-2.3 0.1-1.3 0.2-2.2 2.1-2 1.1-3.4 1.9-3.7 1-4.8 0.5-2.6-0.3-0.2-0.1-1.3-0.8-0.8-0.3-3.4 0.1-1.2-0.2-8.1-3.3-1.2 0-11.7 6.2-0.7 0.9-1.3 2.2-1 0.9-1.1 0.8-1.5 1.7-1.7 4.6-2.6-1.4-0.6-0.5-1.8-2-0.7-0.5-0.1-0.2-0.2-0.3-0.1-0.2-0.1-0.5-0.2-1.1-0.2-1.1 0-0.2-0.1-0.3-0.1-0.2-0.2-0.3-0.5-0.6-2.3-1.2-0.4-0.3-0.1-0.1-0.2-0.2-0.3-0.1-1.4-0.3-0.9 0.1-1.1 0.4-1.4 1.1-1.2 1.4-1.3 1.1-1.4 0.6-3.1-0.8-10.3-2.5-0.4 0.2-1.3 1-0.7 0.1-0.5-0.4-0.6-1.2-1-2.9-0.6-1.2-0.8-0.9-0.7-0.1-0.5 0.1-0.7 0.3-0.5 0-0.6-0.4-1.9-7.4-0.3-0.7-0.5-0.5-0.7-0.5-1-0.2-1 0.2-1.3 0.5-2.8 1.7-0.9 0.9-1.8 3-2.7 3.7-1.6 1.4-1.3 0.5z" id="MN046" name="Uvs">
    </path>
    <path d="M519.7 156.6l0.5-2.1 0.4-3.3 0.7-2.9 0.5-2.8 0.6-1.7 0.7-1.3 0.6-2.4 0.2-0.9 0.1-1.5 0-4.5 1.7-1.8-0.7-1.4-0.6-1-3.2-3.5-1.1-1.5-0.3-0.8-0.2-0.9-0.1-1.5 0.1-2.3 1.3-0.1 0.6-0.2 0.5-0.2 0.2-0.4 0.2-0.3-1.7-1.8-0.1-1.5-0.1-0.8-0.4-1.4-0.3-0.7-2.2-3-2.7-2.4 0.7-0.8 0.9-0.5 1.9-0.5 2.9 0.1 0.9-0.2 0.7-0.4 1.1-1.1 0.7-0.2 2.6 0 0.8-0.2 1.7-1.2 0.7-0.2 0.9-0.2 3.3 0.4 0.8 0 0.7-0.2 0.8-0.4 3-2.7 1.1-0.6 1.4-0.2 8.8 2.4 4-0.3 0.7 0.2 1.4 0.6 1.4 0.3 1.5 0.1 0.8 0.1 1.5 1.3 0.1 0.3 0 0.4 0.1 0.4 0.1 0.4 0.2 0.2 2.2 0.2 0.8 0.4 1.1 0.9 0.6 0.3 0.6 0.1 5.5-1.7 3.1-0.3 3.1 0.4 2.5 0.8 1.2 0.7 4.2 3.7 1 0.5 0.3 0.4 0.4 1.7 0.2 0.4 0.6 0.6 0.2 0.3 0.2 0.5 0.2 1.1 0.3 0.4 0.4 0.4 0.8 0.4 0.4 0.3 1.4 1.3 0.8 0.6 0.9 0.4 0.9-0.1 0.7-0.4 0.7-0.1 1.7 1.5 10.3 0.2 0.4 0.2 0.2 0.1 1 0.8 0.6 0.1 0.9-0.1 0.3 0 1.4 0.5 1.3 0.1 0.3 0.4-0.1 1.2-0.2 0.7-0.3 0.6-0.1 0.7 0 0.9 0.5 2.1 0.2 1.6 0 0.6-0.2 0.5-0.6 1.7 0 0.5 0.3 0.3 0.7 0.1 1.1-0.1 0.4 0.4-0.3 0.9 0 0.7 0.3 0.7 0.5 0.6 2 1.5 0.6 0.3 2.4 0.3 0.7 0.3 0.4 0.5 0.3 0.5 0.2 0.6 0.3 0.6 1.6 2 3.9 3.5 1.8 1.2 0.9 0.1-0.9 4.3-0.4 4.5-1.1-0.1-0.9 0-3.3 0.5-1 0.3-2 0.9-1.8 1.1-0.4 0.5-0.7 0.8-1.1 0.9-2.6-1.9-0.7-0.3-1-0.4-0.8-0.2-1.1-0.1-2.1 0-0.8 0.1-1.7 0.5-0.9 0.3-2 1.5-2 1.9 1.5 2.8 0.4 0.5 0.8 0.7 1.8 0.9 0.6 0.3 0.2 0.3 0.3 0.6 0.2 0.7-0.1 1-0.7 1.7-0.5 1.7-0.5 1.4-0.5 1.3-0.3 0.5-0.2 0.3-0.6 0.3-0.6 0.1-1.5-0.2-0.5 0-0.5 0.2-0.9 0.6-1.2 0.6-1.7 0.6-3.4 1.1-1.2-1.5-0.4-0.4-0.6-0.3-0.7-0.3-1-0.1-1.1 0.1-2.2 0.6-0.5 0-2.1-0.1-0.9 0.2-0.5 0.2-0.8 0.7-0.7 0.8-1.2 1.1-0.8 0.4-1 0.3-0.9 0-2.6-0.6-1.1-0.4-1.6-0.9-0.3-0.7-0.5-0.5-4.4-2.1-3.4-2.1-0.9 0.7-0.7 0.5-1.4 0.5-1.4-0.9-0.5-0.5-0.3-0.3 0.6-1.6 0.5-1.7 0-1.1-0.2-0.7-0.2-0.3-0.5-0.6-0.9-0.7-0.9-0.3-2.8-0.6-5.2 1.3-1.8 0.6-0.7 0.4-1.4 0.9-1.9 1.5 0.4 1.1 0.5 2.3 0.5 1.4-1.9 1-1.9 0.9-1.6 0.9-0.9 0.6-0.6 0.2-1.7 0.3-0.6 0.2-1.9 1-0.6 0.5-0.6 0.2-0.6 0.1-0.7 0-1.5-0.4-1.8-0.8-2-0.6-1.4-0.5-2-0.9-5-1.9-0.2-1.7-0.3-3.1 0.4-0.7-0.2-0.3 0.3-0.4 0.3-0.6 0.1-0.3-1.1-1.1-0.9-1.2-1.3-1.1-1.3-1.3 2.6-1.7 1.3-1.1 0.9-0.9 0.4-0.5 0.2-0.6 0-0.6-0.3-0.7-0.8-1.6-0.3-1.2z m52.1-18.1l-0.9-0.2-1.4-0.4-1.2-0.6-1.2-0.9-1.3-0.6-0.9-0.6-1.2-0.5-1.1-0.3 0.3-1 0.5-1.3 1.6-1.9 0.3-0.5 0.1-0.2 0.1-0.6 0-1-0.2-2.5-2.3 0.8-0.3 0.2-0.1 0.1-0.8 1.7-0.6 0.9-0.4 0.4-0.4 0.2-1.7 1.2-0.2 0.3-0.7 1.3-0.3 0.5-0.7 0.6 0.2 1.4 0.5 1.2 0.1 0.9 0.2 0.8 0.5 0.9 0.2 0.5 0.1 0.5 0 0.1 0 1-0.1 1.9-0.2 0.8-0.7 4.3-0.4 3.4-0.6 3.1-0.5 1.1 1.7 0.7 1.1 0.4 3.1 0.5 0.6 0 0.7-0.1 0.7-0.2 0.3-0.1 0.6-0.5 1-1.1 1.8-1.1 1.7-0.6 0.7-0.1 1.5-0.1 0.9 1.3 1.4 1 0.9 0.5 3.7 1.4 3.2-0.9 2.4-1-0.1-3.3-0.4-2.4 0.2-2.3 0.3-2.3 0.1-2.7-0.1-1.7-0.2-0.8-0.4-0.8-0.3-0.5-0.8-0.8-0.5-0.3-1-0.5-0.9-0.6-0.9-0.4-3.3-1.2-1 1.7-0.6 0.7-1.1 0.9-0.6 0.2-0.7 0.1z" id="MN049" name="Selenge">
    </path>
    <path d="M207.9 219.4l-2.5-4.5-3.4-4.7-0.3-0.8 0-1.1-0.1-1.2-0.3-1.5-0.6-1.6-1.2-3.9 2-1.3 1.5-1.3 3.4-3.6 0.9-1.3 0.4-0.9 0.1-0.3 0.1-0.4 0-0.8 0-0.4 0-0.3 0.2-0.4 0-0.2 0.1-0.1 0.1-0.1 0-0.2 0-0.3-0.1-0.2-0.3-0.3-0.9-0.7 1.7-4.6 1.5-1.7 1.1-0.8 1-0.9 1.3-2.2 0.7-0.9 11.7-6.2 1.2 0 8.1 3.3 1.2 0.2 3.4-0.1 0.8 0.3 1.3 0.8 0.2 0.1 2.6 0.3 4.8-0.5 3.7-1 3.4-1.9 2-1.1 2.2-2.1 1.3-0.2 2.3-0.1 0.9-0.4 1-2 0.4-1.7 0-0.4 0-1.4 0.1-0.9 0.2-1 0.4-1.1 0.2-1-0.2-1.1-0.2-1.2 0-1.4 0.3-1.3 2.4-4.9 0.1-2.4-0.2-1.2-0.4-0.8-0.5-0.8-0.7-0.6-1.7-1-0.8-0.6-0.5-0.7-0.2-0.6-0.4-1.7-0.3-0.9-0.7-1.7-0.3-1.3 0-1.1 0.2-1 0.5-1.5 0.1-0.4 0.1-0.2 0-0.6-0.2-2.4-0.4-1.9-0.1-1.4 0.5-0.8 0.1 0.1 0.6 0.3 0.5-0.2 0.5-0.5 0.7-1.1 0.6-0.4 2.8-0.4 1.1-0.6 1.1-1.5 0.8-0.8 1.1-0.4 1.1 0.2 0.7 1 0.4 1.2 0.5 0.9 0.7 0.3 0.8-0.6 0.3-0.6 0.3-0.5 0.4-0.4 0.4-0.3 0.4-0.2 0.5-0.1 0.4 0.1 0.4 0.2 4.2 1.9 1.3 1 1.2 1.3 0.7 0.4 0.7 0.1 0.8-0.3 1.4-0.9 0.7-0.4 0.8 0 0.6 0.3 0.4 0.6 0.4 1 0.4 0.7 0.5 0.2 0.6-0.2 0.6-0.5 1.5-1.6 0.6-0.1 7.6 1.2 1 0.9 1 1.8 0.5 0.5 0.8 0.3 0 0.2 0.1 0.4 0.1 0.5 0.2 0.4 0.2 0.5 1 1.5 0.2 0.5-0.3 0.5-0.6 0.7-2.5 1.7-2.3 2.1-1.3 1.7-0.4 0.6-0.4 1-0.2 0.7-0.3 1.3 0 1.1 0 0.7 0.5 1.6 0.7 1 5.9 5.6 1.4 0.9 2.3 0.6 5.4 0.4 2.9 0.1 1.6 0.7 8.6 6.4 0.7 0.3 1.3 0.1 1.8-0.6 0.9-0.4 0.8-0.2 2.8-0.2 3.9 0.5 2 0.7 1 0.6 1.3 1 0.6 0.3 0.6 0.2 1.1-0.1 0.7-0.2 1.6-1.1 1.5-2.1 1.4-3 8.8-0.9 0.5 0.5 0.2 0.6 0.2 1 0.6 5.2 0.4 2.6 0.7 2.2 0.2 0.8 0 0.6-0.5 1.9-0.5 1.3-0.5 1.1-2 3.3-0.2 0.6-0.1 0.7-0.1 0.9 0.1 1.3 0.3 1.5 1.7 6.1 0.2 2.8-8.8 4.1-1.6 0.2-0.9 0.4-0.8 0.9-1 2-0.8 1-1.2 0.8-2.2 0.7-6 0.1-0.8 0.3-0.7 0.4-0.5 0.6-0.4 0.5-0.7 2.2 0.2 1.1 1 2.5 0.4 1.5 0.1 1.1-0.2 0.9-1.2 4-0.1 1 0.1 0.8 0.3 0.7 0.9 0.5 0.8 0.3 4.2 0.5 0.1 0.3 0 0.3 0 0.5-0.2 1.1-0.2 0.8-0.3 0.8-0.5 1-0.8 1.4-1.3 1.4-0.4 0.6 0 1 0.2 0.8 0.2 0.8-0.4 1.2-0.8 1.7-2.3 3.5-1.7 0.7-1.7 0.4-2.7 0.1-1 0.1-0.8 0.5-0.5 0.8-0.2 1.2-0.1 1.3-0.2 1.2-4.4 13.7-1.2 3-0.2 0.9 0.1 2.3-2.3-0.6-2-1.3-1.4-0.9-1.2 0-0.5 0.1-0.2 0.1-0.1 0.2-0.4 0.7-0.3 0.3-1.5 1.4-0.9 0.6-0.5 0.1-0.7 0.1-0.4 0-0.3-0.1-0.6-0.4-0.5-0.2-0.2 0-3-0.1-1.4-0.2-0.2-0.4-0.1-0.6 0.1-1.4-0.3-0.7-2-2.2-0.8-1.4-0.5-1.3-0.2-1.1-0.3-2.6-2.4-1.2-1-0.6-1-0.2-7.3 2.3-1 0-0.3-2.5-0.4-0.9-0.6-1.7-0.6-2.9-0.6-1.1-1.6-2.1-0.7-1.5-0.6-2.1-0.4-0.6-0.6-0.7-1-0.5-0.4-0.1-0.8-0.4-10.3-6.6-1.9-1.4-1.7-1.7-0.3-0.1-0.9-0.3-1-0.5-1.2-0.9-7.2-0.4-0.8 0.3-1.2 0.7-1-0.1-0.5-0.5-0.3-0.3-0.3-0.5-0.4-0.8-0.5-0.8-0.6-0.9-0.5-0.6-0.9-0.4-2.4-0.8-0.8 0.1-0.9-0.1-0.3 0.1-1 0.4-0.5 0.1-3.3 0.1-3.7-0.4-3.3-1.1-2-0.3-0.3-0.1-0.4-0.2-0.9-0.8-0.7-0.5-1.2-0.5-1.5-0.3-1 0-0.8 0.2-2.7 1.8-3.7 2-3.5 1.4-6.9 0.8z" id="MN057" name="Zavkhan">
    </path>
    <path d="M734.7 142.2l0 0.1 2.1 3 0.1 0.3 0 0.2-0.1 0.3-0.2 0.4-0.5 0.4-0.1 0.2-0.1 0.2 0.1 2 0.9 5.8 1.1 3.2 0.1 1.2 0 0.8-0.7 2.1-0.3 1 0.5 1.5 1.1 2.6 5.5 10.3 1.7 4.3 0.5 1.7 0.3 2.4 0 2.5-0.7 1.8-0.4 2.9 0.7 7.2 1.5 2.9 0.3 0.6 1.2 2.5 1.2 5.3-2 0.3-0.2 0.1-0.7 0.5-0.4 0.1-1.5 0.2-8.7 3.3-1.6 1.1-0.6 0.6-0.5 0.6-0.4 0.6-0.3 0.6-0.2 0.6-0.2 0.7-0.1 0.8-0.2 2.1 0 1.3 0.2 1.9 0.5 2.5-3.3-0.2-3.6-0.7-0.6 0-0.4 0.1-1.2 0.5-1.3 0.8-0.8 0.8-2.9 3.3-1 1.7-0.4 1.1-0.3 1.2-1 7.7-0.7 2.9-2 3.9-2.6 4.6-0.7 1.5-0.4 1.6-0.1 3.2 0 0.9 0.3 1.3 0.9 3.1 0.2 0.9 0.1 0.8-0.2 0.8-0.2 0.7-1.8 2.6-0.3 0.7-0.1 0.5 0.1 1.3-5.4 5-1.9 1.3-1.6 0-1.9-0.7-5.9-3.7-2.4-2.4-0.9-1.5-0.8-2.5-0.5-1.2-0.6-0.8-4.6-4.8-1.6-2.5-0.8-1.6-0.8-0.8-0.7-0.4-1.6-0.1-1.2 0.2-0.3 0.5 0 1.2 0.7 3.8 0.1 0.8-0.1 0.7-1.1 3.8-0.9 2-0.2 0.4-4.5 3.7-1.3 0.8-1.3 0.5-7 0.7-2.8-0.3-4.2-3-0.8-0.7-0.6-0.9-0.9-2.4-0.7-1.3-2.6-2.6-0.9-1.9-0.2-0.3-0.2-0.7 0-0.4 0-0.8 0-0.5 0.2-0.9 0.3-0.8 2.1-4 0.5-1.3 0.2-1.1 0.1-0.8-0.1-1.1-0.1-1.2-0.3-1.1-0.4-0.6-0.5-0.2-0.5 0.3-0.5 0.5-1 1.5-0.2 0.1-0.3 0.1-0.3-0.3 0-0.3 0.1-2.9-0.1-0.9-0.1-0.6-0.5-1.6-3.5-1.6-1.9-1.5-0.9-0.9-1-1.2-0.3-0.8-0.5-1.6-1.1-3.3-0.4-0.5-0.9-1-0.3-0.5-0.6-2.4 0-0.4-0.2-0.3-1.7-1.9-0.3-0.3-0.3-0.8-0.5-1.9-0.2-0.3-0.3-0.2-0.3-0.2-0.3-0.2-0.2-0.5 0.2-0.7 0.4-0.6 0.3-0.7 0.1-1-0.2-0.5-0.3-0.6-0.1-0.5 0.1-0.4 0.3-0.3 0.2-0.2 0.3-0.3 1-2 0.2-0.7 0.1-0.4 0-1 0-0.2 0.2-0.4-0.2-0.3-0.3-0.3-0.2-0.4 0.1-1.4-0.1-0.5-0.3-1.7 0.1-0.5 0.5-0.8 0.1-0.6 1.9-0.4 1.4-0.4 0.7-0.3 1.2-0.7 0.5-0.4 1.2-1.1 1.7-1.7 1-0.9 0.4-0.3 1-0.5 0.3-0.2 0.4-0.4 0.4-1 0.4-2 0.6-1.7 0.6-1 0.5-0.5 0.4-0.3 0.5-1 0.5-1.4 0.1-1.1-0.1-1-0.5-2.5-0.8-2.1-0.4-1.7-0.7-2.5-0.9-5-0.5-1.4-0.6-1.4-0.2-0.7-0.3-2.1-0.2-0.7-1.1-2-1.2-3-1-1.8-1.1-1.2-1.7-1.7-0.6-0.6-0.6-0.5-0.5-0.7-0.8-0.6-0.8-1.1 0.4-4.5 0.9-4.3 1.1 0.1 4.1-0.8 3 0.1 2-0.4 2.9 0.9 0.7 0 2.9-0.8 3.6 0.4 0.7 0.2 0.7 0.4 1.5 0.6 0.6 0.3 1.1-0.1 0.4 0.2 0.1 0.3 0.1 0.7 0.1 0.4 0.5 0.2 0.7 0.3 6-0.4 1.6 0.6 0.9 1.1 0.4 0 2.3 0.6 7.6 2.2 1.2-0.1 1.2-0.5 1.2-0.9 1-1 0.5-0.6 0.2-0.3 0.4 0 1.4 1.6 0.5 0.4 1.6 0.4 2.7 1.7 1.2 0.4 1.2 0.1 1.2-0.1 3.1-1.1 3.5-2 4.9-3.6 3.8-1.4 0.6-0.3 0.8-1.1 0.5-0.4 0.7-0.1 0.6 0.2 1.3 0.7 0.7 0.2 0.7 0 0.6-0.2 3.2-1.7 1.3-0.4 10.4-0.7 2.8-1.2z" id="MN039" name="Khentii">
    </path>
    <path d="M571.8 138.5l0.7-0.1 0.6-0.2 1.1-0.9 0.6-0.7 1-1.7 3.3 1.2 0.9 0.4 0.9 0.6 1 0.5 0.5 0.3 0.8 0.8 0.3 0.5 0.4 0.8 0.2 0.8 0.1 1.7-0.1 2.7-0.3 2.3-0.2 2.3 0.4 2.4 0.1 3.3-2.4 1-3.2 0.9-3.7-1.4-0.9-0.5-1.4-1-0.9-1.3-1.5 0.1-0.7 0.1-1.7 0.6-1.8 1.1-1 1.1-0.6 0.5-0.3 0.1-0.7 0.2-0.7 0.1-0.6 0-3.1-0.5-1.1-0.4-1.7-0.7 0.5-1.1 0.6-3.1 0.4-3.4 0.7-4.3 0.2-0.8 0.1-1.9 0-1 0-0.1-0.1-0.5-0.2-0.5-0.5-0.9-0.2-0.8-0.1-0.9-0.5-1.2-0.2-1.4 0.7-0.6 0.3-0.5 0.7-1.3 0.2-0.3 1.7-1.2 0.4-0.2 0.4-0.4 0.6-0.9 0.8-1.7 0.1-0.1 0.3-0.2 2.3-0.8 0.2 2.5 0 1-0.1 0.6-0.1 0.2-0.3 0.5-1.6 1.9-0.5 1.3-0.3 1 1.1 0.3 1.2 0.5 0.9 0.6 1.3 0.6 1.2 0.9 1.2 0.6 1.4 0.4 0.9 0.2z" id="MN037" name="Darkhan-Uul">
    </path>
    <path d="M641.4 245.2l-1.9 4.8-0.4 0.5-1 1-2 1.1-4.5 2.2-3.5-0.5-4.3-0.8-2.5 0-1.8 0.4-1.4 0.4-1.3 0.7-2.8 0.6-0.2 1.6-0.2 1.6-0.2 2.5-0.1 0.6-0.3 0.7-0.2 0.3-0.5 0.5-0.3 0.2-0.7 0.2-2.4 0.3-1.3 0.5-0.6 0.4-0.2 0.2-1.5 2.2-0.4 0.4-0.5 0.4-2.9 1.1-1.4 0.4-0.7 0.1-4.5 0.2-2.3 0.3-1.7-1.2-1.2-1.1-1.7-1.7-1.1-1.1-1.8-1-1-0.3-2.8-0.6-1.9 0-2.5 0-5.4 0-5.4-0.1-0.3-0.8-0.2-0.3-0.5-0.5-0.6-0.4-3-0.9-1-0.4-1.3-0.9-1.8-1.7-0.5-0.4-0.3-0.1-0.7-0.1-1 0.1-1.9 0.4-1.1 0.5-2.5 3.5-0.6 0.7-2.1 2.8-2.2 4.1-1.4-1.2-1.1-0.8-0.7-0.6-1.7-1-1.9-0.7-2.8-0.9-2.6-1-2.5 3.2-1 1-1.6 1.1-3.8 3.3-0.6-0.6-0.7-1-1.3-1.2-3.6-2.5-0.5-0.4-0.2-0.4-0.3-0.6-0.1-0.7 0-3.9-0.1-0.7-0.2-0.8-0.3-0.8-0.8-1.1-0.6-1.3-0.5-0.7-0.9-1.3-1.1-1.4 1.2-1.3 0.7-0.6 0.5-0.2 0.8-0.1 0.2-1.8 0.1-1.1-0.1-0.9-0.2-0.7-0.2-0.6-0.3-0.5-1.1-1.2-1.8-1.6-1-1.2-0.3-0.5-0.5-1.3-0.4-2.4-0.1-1.1 0.1-1.4 0.7-1.3 0-0.6-0.1-0.6-0.2-0.4-0.9-1-0.6-0.6-0.4-0.5-0.3-0.5-0.5-1.6 1.3-1.2 1.2-1.2 3.6-2.4 1.3-0.5 0.7-0.1 1.5-0.1 2.2 0 0.8-1.3 0.4-1 3.7 0 2.9-0.3-0.6-1.9-1.2-4.6-0.1-1.3-0.1-2 0.6-0.6-0.1-1.1-0.1-0.4-0.2-0.2-0.2-0.1-0.4-0.1-0.3 0.2-0.3 0.1-2.9-0.1-1.6-0.3-1.7-0.6-1.2-0.8-0.2-2.2-0.2-0.9-1.4-2.1-1.2-1.3 1.2-2 0.3-0.8 0.7-2 1-1.8 1.2-1.2 1.5-1.1 0.3-0.3 0.3-0.6 0.5-1.9 0.1-1.8 0-3.3-0.3-3.7 5 1.9 2 0.9 1.4 0.5 2 0.6 1.8 0.8 1.5 0.4 0.7 0 0.6-0.1 0.6-0.2 0.6-0.5 1.9-1 0.6-0.2 1.7-0.3 0.6-0.2 0.9-0.6 1.6-0.9 1.9-0.9 1.9-1-0.5-1.4-0.5-2.3-0.4-1.1 1.9-1.5 1.4-0.9 0.7-0.4 1.8-0.6 5.2-1.3 2.8 0.6 0.9 0.3 0.9 0.7 0.5 0.6 0.2 0.3 0.2 0.7 0 1.1-0.5 1.7-0.6 1.6 0.3 0.3 0.5 0.5 1.4 0.9 1.4-0.5 0.7-0.5 0.9-0.7 3.4 2.1 4.4 2.1 0.5 0.5 0.3 0.7 1.6 0.9 1.1 0.4 2.6 0.6 0.9 0 1-0.3 0.8-0.4 1.2-1.1 0.7-0.8 0.8-0.7 0.5-0.2 0.9-0.2 2.1 0.1 0.5 0 2.2-0.6 1.1-0.1 1 0.1 0.7 0.3 0.6 0.3 0.4 0.4 1.2 1.5 3.4-1.1 1.7-0.6 1.2-0.6 0.9-0.6 0.5-0.2 0.5 0 1.5 0.2 0.6-0.1 0.6-0.3 0.2-0.3 0.3-0.5 0.5-1.3 0.5-1.4 0.5-1.7 0.7-1.7 0.1-1-0.2-0.7-0.3-0.6-0.2-0.3-0.6-0.3-1.8-0.9-0.8-0.7-0.4-0.5-1.5-2.8 2-1.9 2-1.5 0.9-0.3 1.7-0.5 0.8-0.1 2.1 0 1.1 0.1 0.8 0.2 1 0.4 0.7 0.3 2.6 1.9 1.1-0.9 0.7-0.8 0.4-0.5 1.8-1.1 2-0.9 1-0.3 3.3-0.5 0.9 0 1.1 0.1 0.8 1.1 0.8 0.6 0.5 0.7 0.6 0.5 0.6 0.6 1.7 1.7 1.1 1.2 1 1.8 1.2 3 1.1 2 0.2 0.7 0.3 2.1 0.2 0.7 0.6 1.4 0.5 1.4 0.9 5 0.7 2.5 0.4 1.7 0.8 2.1 0.5 2.5 0.1 1-0.1 1.1-0.5 1.4-0.5 1-0.4 0.3-0.5 0.5-0.6 1-0.6 1.7-0.4 2-0.4 1-0.4 0.4-0.3 0.2-1 0.5-0.4 0.3-1 0.9-1.7 1.7-1.2 1.1-0.5 0.4-1.2 0.7-0.7 0.3-1.4 0.4-1.9 0.4-3.7-0.2-2 2-0.9 1.1-0.4 0.8-0.6 1.8-0.4 1.4-0.1 1.1 0.1 0.8 0.5 1.8 0.3 1.6 0.9 1.4 0.6 0.5 0.6 0.3 3.5 0.6-0.3 0.7-0.4 0.6-0.2 0.7 0.2 0.5 0.3 0.2 0.3 0.2 0.3 0.2 0.2 0.3 0.5 1.9 0.3 0.8 0.3 0.3 1.7 1.9 0.2 0.3 0 0.4 0.6 2.4 0.3 0.5 0.9 1 0.4 0.5 1.1 3.3 0.5 1.6 0.3 0.8 1 1.2 0.9 0.9 1.9 1.5z m-55-48.6l-0.6-0.2-1.7-0.7-0.7-0.2-2.4-0.5-2.9-0.7 0.1 0-6.6-1.3 0.5 1.9 0.5 2 0.8 2.8 0.3 5.5 0.7 1 0.4 0.6 0.4 1.3 0.4 1.4 0 3.3 0.2 0.8 0.2 0.7 0.3 0.3 0.6 0.4 2.4 0.6 1 0.4 4.2-0.4 3.3-0.6 0.7 0 2.2 0.1 1.1 0.2 1.1 0.4 1 0.8 2.2 1.9 0.7 0.4 0.8 0.2 1.7 0.2 2.1-0.1 1.3-0.2 1.5-0.4 0.1-1 0.8-3.9 0.3-2 0.7-2.8 0-0.7-0.2-0.6-0.4-0.6-0.8-0.5-1.8-0.6-1.8-0.4-0.7-0.2-0.7-0.4-0.5-0.5-0.5-0.5-0.8-1.1-0.8-0.9-1.7-2.8-1.5-1.8-0.6-1.1-0.7-1.5-2.8 1.2-2.3 0.7-1.1 0.1z" id="MN047" name="Tuv">
    </path>
    <path d="M427.6 253.2l-1.7-1.8-0.7-0.3-3.5 0.8-1.3 0.1-3.1-0.5-1 0-2.1 0.7-2.1 0.1-0.6-0.4-0.4-0.6-0.4-0.9-0.6-1.9-0.5-0.8-0.9-0.8-0.9-0.3-1.5-0.4-0.3-0.2-0.2-0.4-0.4-1.5-0.4-1-0.7-1.1-0.4-1-0.3-2.6-0.3-0.4-0.6-0.1-0.9 0.2-9.9 3-2.5 0.6-0.6 0-0.5-0.4-0.3-0.7-0.2-1 0-0.8 0.1-0.8-0.1-0.6-0.1-0.6-0.3-0.8-0.3-0.7-0.1-1.2 0-1 0.2-2.1 0.1-1.1-0.1-1-0.4-1.1-0.7-1-2.1-1.7-0.8-0.8-0.5-0.7-0.4-1-0.2-1.3 0-3.3-0.7 0.1-2 1.2-0.7 0.7-0.5 0.7-0.5 0.4-0.6 0.4-1.8 0.3-0.7 0.2-0.6 0.4-1.4 1.9-0.6 0.4-0.5 0.3-0.8 0.3-2.4 0.4-3.4 0.1-0.9 0-0.7-0.3-5-3.3-0.5-0.6-0.4-0.8 0-2.7-0.7-1.8-0.4-0.4-0.3-0.4-0.5-0.2-0.5-0.2-0.5-0.1-2.3 0.3-2.8 0.9-1.1 0.7-1.8 1.7-4.2-0.5-0.8-0.3-0.9-0.5-0.3-0.7-0.1-0.8 0.1-1 1.2-4 0.2-0.9-0.1-1.1-0.4-1.5-1-2.5-0.2-1.1 0.7-2.2 0.4-0.5 0.5-0.6 0.7-0.4 0.8-0.3 6-0.1 2.2-0.7 1.2-0.8 0.8-1 1-2 0.8-0.9 0.9-0.4 1.6-0.2 8.8-4.1 2.4 2.7 0.9 0.5 0.7 0.1 0.8-0.2 0.8-0.6 0.5-0.7 0.4-0.6 0.4-0.4 0.3-0.1 0.6 0.2 0.6 0.4 0.6 0.2 0.7 0.2 6.3-0.6 0.5-0.1 0.4-0.5 0.4-0.9 0.3-3.5 0.3-0.9 0.3-0.6 0.6-0.5 0.6-0.2 2.7 0.1 1 0.5 4.3 2.5 0.7 0.3 0.9 0.2 1-0.2 0.9-0.4 0.3-1 0-0.8-0.2-0.9 0.3-0.8 0.8-0.5 2.6-0.5 2.5-0.8 1.2-1-0.6-0.9-0.3-0.3-0.1-0.1-0.2-0.1-0.6-0.1-0.3-0.1-0.2-0.1-0.1-0.2-0.2-0.3-0.3-0.6-0.2-0.4-0.1-0.6 0-0.5-0.3-0.7 0-0.3 0-0.5 0.2-0.5 0.2-0.8 0.3-0.4 0-0.4-0.1-0.2-0.1-0.2 0.1-0.2 0.1-0.2 0.5-0.5 0.2-0.2-0.1-0.2-0.1-0.1-0.4-0.2-0.1-0.2 0.2-0.4 0.4-0.7 0.6-0.5 0.3-0.5 0.2-0.2 0-0.3-0.1-0.2 0-0.2 0-0.2 0.6-0.3 0.4-0.2 1.2-0.8 0.3-0.2 0.4-0.1 0.1 0 0.2-0.1 0.2-0.1 0.7-0.5 0.1-0.3 0.3-0.4 0-0.2 0-0.2-0.6-0.8-3.4-1.9-0.3-0.2-0.2-0.3-0.1-0.5 0.1-0.2 0.1-0.6 0.1-0.5 0.4-0.4 0.5 0.6 0.6 0 3.3-0.8 0.2-0.3 0-0.4 0-0.3 0.5-0.5 1.1-0.8 0.4-0.6 0.4-0.6 0.1-0.3 0.1-0.9 0-0.2 0.1-0.2 0.1-0.2 0.2-0.2 0.3-0.4 0.7-0.1 0.8 0.4 8.7 4.7 6.6 4.8 0.9 0.5 3.1 0.2 5.8-1.2 0.3 1.6 0.4 0.8 1 1.3 0.6 0.5 0.6 0.6 1.4 0.9 1.1 0.1 0.7 0.1 0.3 0.2 0.6 0.4 0.7 0.8 0.3 0.6 0.3 0.8 0.3 0.6 0.5 0.3 0.6 0.2 0.6 0 0.8-0.2 1.2-0.8 1.2-0.7 0.8 2 1.1 3.8 0.7 4.9 0 0.7-0.1 1.2 0.2 0.9 0.3 0.6 0.4 0.6 0.5 0.5 1.4 1 0.7 0.8 0.4 1.1 0.3 2.4 0.8 1 0.5 0.4 1.8 1.4 0.7 0.2 0.6 0.2 1.4 0 1.6 0.2 1.4 1.4 1.4 2 0.6 1.3 0.8 1.2 0.8 1.4 0.3 1.1 0.4 2.1 0.3 3.1 0.1 0.8 0.2 0.3 0.5 0.5 0.5 0.4 1.9 0.9 1.6 0.8 0.4 1.2 0.2 0.6 0.9 2 0.7 1.2 1.3 0.1 0.7 0.1 0.6 0.3 0.7 0.5 1.4 1.9 0.9 1.5 0.6 1.5 0.9 1.5 0.7 0.9 0.9 1.3 1.2 1.1 1.3 0.9 1.8 1.7 1.2 0.9 1.9 1.9 0.3 2 0.2 1.7-3 1.9-1.3 0.3-4.4 0.2-5-0.6-1.1-0.4-0.6-0.5-1.5-3.3-0.6-1-0.8-0.8-4.9-1.8-0.7-0.1-1.6 0-2.3-1.3-0.3-0.1-0.8-0.1-0.4 0.4-0.3 0.6 0.1 0.9 0.3 0.8 0.4 0.6 0.5 0.6 0.5 0.3 0.7 0.3 0.4 0.3-0.1 1.3-1.7 3.8-1.1 1.9-2.2 1.5-0.3 0.6-0.3 0.8-0.1 2.1-0.5 2.3-1.5 0.6-0.7-0.2-0.7-0.5-0.6-0.6-1.1-1.8-0.7-0.7-0.7-0.2-0.8 0-3.3 1.4-5.9 1.7-2 1.5-0.8 0.9-1.3 0.9-15.2 3.4z" id="MN073" name="Arkhangai">
    </path>
    <path d="M515.7 165.5l-1.3-0.6-0.9-0.6-1.7-0.8-1.6-0.2-5.2-1.5 0-2.4 1.7-2.3 1.2-1.1 1.1 0.4 4 1.3 1.7-1.7 0.3-0.2 0.7-0.2 0.7-0.1 1.1 0.2 0.8 0.2 1.4 0.7 0.3 1.2 0.8 1.6 0.3 0.7 0 0.6-0.2 0.6-0.4 0.5-0.9 0.9-1.3 1.1-2.6 1.7z" id="MN035" name="Orkhon">
    </path>
    <path d="M616.8 255l0.4 1.8 0.6 0.8 0.8 0.8 0.9 0.3 1.2 0.3 1.9 0 1.4 0.2-0.3 0.4-2.7 2.3-0.6 0.8-0.3 0.6 0.1 0.6 0.5 0.7 4.5 4.8 1 1.7 0.7 2 0.3 1.2 0.1 0.9-0.1 2.7-0.8 6.1-0.1 1.2 0.3 1.4 0.3 0.6 0.4 0.5 1 1.9 0.8 0.8 0.8 0.4 3.8-1.4 1.1 0.1-1.6 4.8-0.7 4.1-0.1 3.1 0.5 8.2 2.1 13 0.6 2.2 0 0.8-0.2 0.5-0.6 0.2-1.1-0.1-0.5 0.1-0.5 0.2-1 0.8-0.9 1.4-1.3 2.5-2.8 1.7-10 1.3-2.1 0.2-0.7 0.3-0.6 0.7-0.4 1.6-0.8 6.4-0.4 1.2-0.4 0.7-1.5 1.1-4.6 1.5-2.8 0.4-0.6-0.1-2-1-1.3-0.2-0.8 0-16.2 5.6-2 1.1-2.5 2-2.1 0.9-1.3 0.4-2.5 0.4-8.8 1.4-0.9-0.2-2.2-0.9-2.1-1.3-2.3-1.9-0.5-0.8-0.4-1 0-0.8 0-0.8-0.4-1-0.8-1.6-1.8-2.6-3.6-6.6-0.6-0.4-1.7-0.4-8-0.8-11.6-1.3-12.6-2-2.1-0.7-0.7-0.6-0.7-0.8-1.1-2.4-0.1-0.4 0.1-0.3 0.1-0.5 0.1-0.9 0-0.5 0-0.3-0.1-0.3-0.1-0.5 0-0.2 0-0.3 0-0.2 0-0.3 0.3-0.5 0.1-0.3 0-0.2 0-0.2-0.1-1.6 0-0.5 0.1-0.8 0-0.2 0-0.2-0.2-0.3-0.6-0.8-9.3-0.2 0-2.6 0.2-0.9 0.3-0.8 0.7-1.5-0.4-1.1-3-2.9-1.2-1.6-0.5-1-0.4-0.8-0.1-1-0.2-1 0-0.8 0.2-0.7 0.3-0.7 1.1-1.6 1.6-1.5 0.6-0.5 0.7-0.3 1.9-0.3 6.4-0.8 1.3-2.3 0.2-2.8 1.2-6 0.1-0.5 0.2-2.9 0.1-0.4 0.3-0.5 0.5-0.2 0.8-0.3 3.6-0.3 1.8-0.7 0.6-0.7 0.4-0.8 0.4-0.9 1.7-2.1 0.2-1 0.1-1.9 0.2-1 0.2-0.6 1.5-1.6 0.7 1 0.6 0.6 3.8-3.3 1.6-1.1 1-1 2.5-3.2 2.6 1 2.8 0.9 1.9 0.7 1.7 1 0.7 0.6 1.1 0.8 1.4 1.2 2.2-4.1 2.1-2.8 0.6-0.7 2.5-3.5 1.1-0.5 1.9-0.4 1-0.1 0.7 0.1 0.3 0.1 0.5 0.4 1.8 1.7 1.3 0.9 1 0.4 3 0.9 0.6 0.4 0.5 0.5 0.2 0.3 0.3 0.8 5.4 0.1 5.4 0 2.5 0 1.9 0 2.8 0.6 1 0.3 1.8 1 1.1 1.1 1.7 1.7 1.2 1.1 1.7 1.2 2.3-0.3 4.5-0.2 0.7-0.1 1.4-0.4 2.9-1.1 0.5-0.4 0.4-0.4 1.5-2.2 0.2-0.2 0.6-0.4 1.3-0.5 2.4-0.3 0.7-0.2 0.3-0.2 0.5-0.5 0.2-0.3 0.3-0.7 0.1-0.6 0.2-2.5 0.2-1.6 0.2-1.6 2.8-0.6z" id="MN059" name="Dundgovi">
    </path>
    <path d="M441.5 364.5l-4.6-18.6-0.8-2.3-1.3-2.9-0.4-1-0.1-0.7 0-0.6 0.1-0.4 1.1-2.8 0.8-2.2-0.6-1.1-2.6-1.6-1.1-1-1.8-1.1-3.5-1.1-0.7-0.5-0.6-0.6-0.3-0.8-0.3-0.9-0.4-1.8-0.2-1.5-0.3-4.3-0.2-0.6-0.1-0.6 0.1-1.2 0-0.9-0.4-2.1 0-0.8 0.2-0.6 0.3-0.5 1.6-1.6 1.3-1.8 1-2.6 0.1-1-0.1-2.1 1.2-4.3 0.1-1.6-0.1-1.4-0.4-2.1-0.1-3.5 0.2-1 0.4-0.9 0.4-0.9 0.5-0.7 0.6-0.5 1.5-0.6 0.9-0.4 0.7-0.6 0.5-0.7 0.2-0.5 0.2-0.8 0-1.6-0.2-2.1-0.3-1-0.4-0.7-0.4-0.4-0.3-0.7 0.5-1.1 2.5-3.2 0.1-0.8-0.1-0.6-0.4-0.5-0.2-0.7-0.2-0.7-0.2-3.3-2.7-3.4-3.2-3.2-0.3-0.5-1.1-2.1 15.2-3.4 1.3-0.9 0.8-0.9 2-1.5 5.9-1.7 3.3-1.4 0.8 0 0.7 0.2 0.7 0.7 1.1 1.8 0.6 0.6 0.7 0.5 0.7 0.2 1.5-0.6 0.5-2.3 0.1-2.1 0.3-0.8 0.3-0.6 2.2-1.5 1.1-1.9 1.7-3.8 0.1-1.3-0.4-0.3-0.7-0.3-0.5-0.3-0.5-0.6-0.4-0.6-0.3-0.8-0.1-0.9 0.3-0.6 0.4-0.4 0.8 0.1 0.3 0.1 2.3 1.3 1.6 0 0.7 0.1 4.9 1.8 0.8 0.8 0.6 1 1.5 3.3 0.6 0.5 1.1 0.4 5 0.6 4.4-0.2 1.3-0.3 3-1.9 2-0.5 1-0.1 0.7 0.1 1 0.1 0.6 0.1 2.4-0.3 3.5-0.8 2.1-0.6-0.1 1.4 0.1 1.1 0.4 2.4 0.5 1.3 0.3 0.5 1 1.2 1.8 1.6 1.1 1.2 0.3 0.5 0.2 0.6 0.2 0.7 0.1 0.9-0.1 1.1-0.2 1.8-0.8 0.1-0.5 0.2-0.7 0.6-1.2 1.3 1.1 1.4 0.9 1.3 0.5 0.7 0.6 1.3 0.8 1.1 0.3 0.8 0.2 0.8 0.1 0.7 0 3.9 0.1 0.7 0.3 0.6 0.2 0.4 0.5 0.4 3.6 2.5 1.3 1.2-1.5 1.6-0.2 0.6-0.2 1-0.1 1.9-0.2 1-1.7 2.1-0.4 0.9-0.4 0.8-0.6 0.7-1.8 0.7-3.6 0.3-0.8 0.3-0.5 0.2-0.3 0.5-0.1 0.4-0.2 2.9-0.1 0.5-1.2 6-0.2 2.8-1.3 2.3-6.4 0.8-1.9 0.3-0.7 0.3-0.6 0.5-1.6 1.5-1.1 1.6-0.3 0.7-0.2 0.7 0 0.8 0.2 1 0.1 1 0.4 0.8 0.5 1 1.2 1.6 3 2.9 0.4 1.1-0.7 1.5-0.3 0.8-0.2 0.9 0 2.6-0.1 0.7-0.3 0.7-2 3.8-0.6 0.9-0.8 0.9-4.8 3.7-5.9 3.2-0.8 1.5-4.9 10.6-0.4 1.3-0.5 1.9-0.5 1.1-0.4 0.7-1.4 1.2-0.3 1.1 0 1.3 1.7 4.8 0.3 1.1-0.1 0.6-10.5-0.8-14.2 1.1-8.3 2.6-2.2 1z" id="MN055" name="Uvurkhangai">
    </path>
    <path d="M631.7 207.5l-0.1 0.6-0.5 0.8-0.1 0.5 0.3 1.7 0.1 0.5-0.1 1.4 0.2 0.4 0.3 0.3 0.2 0.3-0.2 0.4 0 0.2 0 1-0.1 0.4-0.2 0.7-1 2-0.3 0.3-0.2 0.2-0.3 0.3-0.1 0.4 0.1 0.5 0.3 0.6 0.2 0.5-0.1 1-3.5-0.6-0.6-0.3-0.6-0.5-0.9-1.4-0.3-1.6-0.5-1.8-0.1-0.8 0.1-1.1 0.4-1.4 0.6-1.8 0.4-0.8 0.9-1.1 2-2 3.7 0.2z" id="MN064" name="Govi-Sumber">
    </path>
    <path d="M586.4 196.6l1.1-0.1 2.3-0.7 2.8-1.2 0.7 1.5 0.6 1.1 1.5 1.8 1.7 2.8 0.8 0.9 0.8 1.1 0.5 0.5 0.5 0.5 0.7 0.4 0.7 0.2 1.8 0.4 1.8 0.6 0.8 0.5 0.4 0.6 0.2 0.6 0 0.7-0.7 2.8-0.3 2-0.8 3.9-0.1 1-1.5 0.4-1.3 0.2-2.1 0.1-1.7-0.2-0.8-0.2-0.7-0.4-2.2-1.9-1-0.8-1.1-0.4-1.1-0.2-2.2-0.1-0.7 0-3.3 0.6-4.2 0.4-1-0.4-2.4-0.6-0.6-0.4-0.3-0.3-0.2-0.7-0.2-0.8 0-3.3-0.4-1.4-0.4-1.3-0.4-0.6-0.7-1-0.3-5.5-0.8-2.8-0.5-2-0.5-1.9 6.6 1.3-0.1 0 2.9 0.7 2.4 0.5 0.7 0.2 1.7 0.7 0.6 0.2z" id="MN1" name="Ulaanbaatar">
    </path>
  </g>
  <g id="points">
    <circle class="42.115457447203205|89.34861412234251" cx="90.9" cy="439.6" id="0">
    </circle>
    <circle class="46.331931785055396|105.43198924933715" cx="545.5" cy="273.2" id="1">
    </circle>
    <circle class="51.602524707370634|118.29868935093286" cx="909.1" cy="46" id="2">
    </circle>
  </g>
  <g id="label_points">
    <use href="#map-pin" class="Dornod" id="MN061" transform="translate(820.5 165.5) scale(1)"></use>
    <text x="790.5" y="195.5" font-size="12" fill="white" text-anchor="middle" font-family="Times New Roman">Dornod</text>  

    <use href="#map-pin" class="Khovd" id="MN043-main" transform="translate(163.9 237) scale(1)"></use>  
    <use href="#map-pin" class="KhovdBulgan" id="MN043-south" transform="translate(153.9 287) scale(1)"></use>
    <text x="185.9" y="257" font-size="12" fill="white" text-anchor="middle" font-family="Times New Roman">Khovd</text>

    <use href="#map-pin" class="Dornogovi" id="MN063" transform="translate(673.4 328.4) scale(1)"></use>
    <text x="673.4" y="358.4" font-size="12" fill="white" text-anchor="middle" font-family="Times New Roman">Dornogovi</text>

    <use href="#map-pin" class="Umnugovi" id="MN053-main" transform="translate(511 373) scale(1)"></use>
    <use href="#map-pin" class="UmnugoviHoid" id="MN053-north" transform="translate(521 363) scale(1)"></use>
    <text x="511" y="403" font-size="12" fill="white" text-anchor="middle" font-family="Times New Roman">Umnugovi</text>

    <use href="#map-pin" class="Khuvsgul" id="MN041-main" transform="translate(390.8 121.5) scale(1)"></use>
    <use href="#map-pin" class="KhuvsgulHoidBaruun" id="MN041-nw" transform="translate(370.8 80.5) scale(1)"></use>
    <use href="#map-pin" class="KhuvsgulHoidZuun" id="MN041-ne" transform="translate(350.8 70.5) scale(1)"></use>
    <use href="#map-pin" class="KhuvsgulBaruun" id="MN041-west" transform="translate(350.8 131.5) scale(1)"></use>
    <use href="#map-pin" class="KhuvsgulZuun" id="MN041-east" transform="translate(440.8 131.5) scale(1)"></use>
    <text x="399.8" y="101.5" font-size="12" fill="white" text-anchor="middle" font-family="Times New Roman">Khuvsgul</text>

    <use href="#map-pin" class="Bulgan" id="MN067" transform="translate(482.7 155.5) scale(1)"></use>
    <use href="#map-pin" class="BulganHoidBaruun" id="MN067" transform="translate(492.7 135.5) scale(1)"></use>
    <text x="482.7" y="185.5" font-size="12" fill="white" text-anchor="middle" font-family="Times New Roman">Bulgan</text>

    <use href="#map-pin" class="Uvs" id="MN046" transform="translate(166 113.9) scale(1)"></use>
    <text x="186" y="143.9" font-size="12" fill="white" text-anchor="middle" font-family="Times New Roman">Uvs</text>

    <use href="#map-pin" class="Selenge" id="MN049-main" transform="translate(541.7 112.6) scale(1)"></use>
    <use href="#map-pin" class="SelengeZuun" id="MN049-east" transform="translate(608.7 132.6) scale(1)"></use>
    <use href="#map-pin" class="SelengeUrd" id="MN049-south" transform="translate(578.7 170.6) scale(1)"></use>
    <text x="540.1" y="140.6" font-size="10" fill="white" text-anchor="middle" font-family="Times New Roman">Selenge</text>

    <use href="#map-pin" class="Darkhan-Uul" id="MN037" transform="translate(565.9 128.6) scale(1)"></use>
    <text x="548.9" y="155.6" font-size="10" fill="white" text-anchor="middle" font-family="Times New Roman">Darkhan-Uul</text>

    <use href="#map-pin" class="Khentii" id="MN039-main" transform="translate(688.3 208.4) scale(1)"></use>
    <use href="#map-pin" class="KhentiiBinder" id="MN039-binder" transform="translate(688.3 168.4) scale(1)"></use>
    <text x="688.3" y="236.4" font-size="12" fill="white" text-anchor="middle" font-family="Times New Roman">Khentii</text>

    <use href="#map-pin" class="Tuv" id="MN047" transform="translate(553.6 222.4) scale(1)"></use>
    <use href="#map-pin" class="TuvBatsumber" id="MN047" transform="translate(553.6 180.4) scale(1)"></use>
    <text x="583.6" y="252.4" font-size="12" fill="white" text-anchor="middle" font-family="Times New Roman">Tuv</text>

    <use href="#map-pin" class="Ulaanbaatar" id="MN1" transform="translate(588.7 190.6) scale(1)"></use>
    <text x="595.7" y="229.6" font-size="12" fill="white" text-anchor="middle" font-family="Times New Roman">Ulaanbaatar</text>

    <use href="#map-pin" class="Arkhangai" id="MN073-main" transform="translate(428.2 190.6) scale(1)"></use>
    <use href="#map-pin" class="ArkhangaiBaruun" id="MN073-west" transform="translate(408.2 198.6) scale(1)"></use>
    <use href="#map-pin" class="ArkhangaiZuun" id="MN073-east" transform="translate(448.2 200.6) scale(1)"></use>
    <text x="428.2" y="230.6" font-size="12" fill="white" text-anchor="middle" font-family="Times New Roman">Arkhangai</text>
  
    <use href="#map-pin" class="Dundgovi" id="MN059-main" transform="translate(560.9 290.8) scale(1)"></use>
    <use href="#map-pin" class="DundgoviHoish" id="MN059-north" transform="translate(580.9 276.8) scale(1)"></use>
    <text x="570.9" y="320.8" font-size="12" fill="white" text-anchor="middle" font-family="Times New Roman">Dundgovi</text>

    <use href="#map-pin" class="Uvurkhangai" id="MN055" transform="translate(474.4 268) scale(1)"></use>
    <text x="470.4" y="293" font-size="12" fill="white" text-anchor="middle" font-family="Times New Roman">Uvurkhangai</text> 
  </g>
</svg>
